<svg width="10" height="43" viewBox="0 0 10 43" fill="none" xmlns="http://www.w3.org/2000/svg">
<path d="M0 21.5C0 24.2355 2.24333 26.4615 5 26.4615C7.75667 26.4615 10 24.2355 10 21.5C10 18.7645 7.75667 16.5385 5 16.5385C2.24333 16.5385 0 18.7645 0 21.5ZM0 38.0385C0 40.7739 2.24333 43 5 43C7.75667 43 10 40.7739 10 38.0385C10 35.303 7.75667 33.0769 5 33.0769C2.24333 33.0769 0 35.303 0 38.0385ZM0 4.96154C0 7.697 2.24333 9.92308 5 9.92308C7.75667 9.92308 10 7.697 10 4.96154C10 2.22608 7.75667 0 5 0C2.24333 0 0 2.22608 0 4.96154Z" fill="#8B8B8B"/>
</svg>
