<svg width="31" height="39" viewBox="0 0 31 39" fill="none" xmlns="http://www.w3.org/2000/svg">
<path fill-rule="evenodd" clip-rule="evenodd" d="M9.05267 1.08281C9.05273 0.795902 9.16594 0.520756 9.36743 0.317833C9.56892 0.11491 9.8422 0.000811287 10.1272 0.000609389L20.8721 0C21.1572 0.000665297 21.4304 0.11508 21.6318 0.318166C21.8332 0.521252 21.9464 0.796442 21.9466 1.08342V3.7584H9.05267V1.08281ZM26.7193 37.4514C26.6919 37.8731 26.5054 38.2684 26.1979 38.5563C25.8905 38.8442 25.4853 39.0029 25.0654 39H5.81039C5.3906 38.9988 4.98678 38.8379 4.68003 38.5494C4.37327 38.2609 4.18629 37.8663 4.15663 37.4448L2.50893 13.1821H28.4779L26.7197 37.451L26.7193 37.4514ZM31 10.9847H0V8.47096C0.000460846 7.80427 0.263729 7.16501 0.732002 6.69354C1.20027 6.22207 1.83528 5.95692 2.49758 5.95632L28.5021 5.95548C29.1644 5.95651 29.7992 6.22189 30.2673 6.69341C30.7354 7.16493 30.9987 7.8041 30.9993 8.47073V10.9845L31 10.9847ZM10.5085 33.216C10.5085 33.3603 10.5368 33.5031 10.5916 33.6364C10.6465 33.7697 10.7268 33.8908 10.8282 33.9928C10.9295 34.0948 11.0498 34.1758 11.1823 34.231C11.3147 34.2862 11.4566 34.3146 11.5999 34.3146C11.7432 34.3146 11.8851 34.2862 12.0175 34.231C12.1499 34.1758 12.2703 34.0948 12.3716 33.9928C12.4729 33.8908 12.5533 33.7697 12.6082 33.6364C12.663 33.5031 12.6912 33.3603 12.6912 33.216V17.8101C12.689 17.5204 12.573 17.2433 12.3687 17.0392C12.1644 16.8352 11.8883 16.7206 11.6005 16.7205C11.3126 16.7204 11.0364 16.8348 10.832 17.0387C10.6275 17.2427 10.5114 17.5197 10.5089 17.8094V33.216H10.5085ZM18.2953 33.216C18.2953 33.5074 18.4103 33.7869 18.615 33.9929C18.8197 34.199 19.0973 34.3148 19.3868 34.3148C19.6763 34.3148 19.9539 34.199 20.1586 33.9929C20.3633 33.7869 20.4783 33.5074 20.4783 33.216V17.8101C20.476 17.5204 20.3601 17.2433 20.1557 17.0391C19.9514 16.835 19.6752 16.7204 19.3874 16.7203C19.0995 16.7202 18.8232 16.8346 18.6188 17.0386C18.4143 17.2426 18.2982 17.5196 18.2957 17.8094L18.2953 33.216Z" fill="#8B8B8B"/>
</svg>
