<svg width="38" height="38" viewBox="0 0 38 38" fill="none" xmlns="http://www.w3.org/2000/svg">
<path d="M23.467 6.35107L2.55893 27.2827C2.45364 27.3884 2.37861 27.5204 2.34165 27.665L0.0241088 36.9766C-0.00997631 37.1148 -0.00788746 37.2594 0.0301736 37.3966C0.0682347 37.5337 0.140982 37.6587 0.241388 37.7595C0.395611 37.9133 0.604422 37.9998 0.822161 38C0.889331 38 0.956243 37.9917 1.02138 37.9753L10.3233 35.655C10.4679 35.6186 10.5999 35.5435 10.7052 35.4378L31.6152 14.5076L23.467 6.35107ZM36.795 3.49706L34.4676 1.16728C32.9121 -0.389867 30.201 -0.388322 28.6472 1.16728L25.7963 4.02129L33.9441 12.1776L36.795 9.32363C37.572 8.54614 38 7.51121 38 6.41054C38 5.30988 37.572 4.27494 36.795 3.49706Z" fill="#8B8B8B"/>
</svg>
