<svg width="46" height="34" viewBox="0 0 46 34" fill="none" xmlns="http://www.w3.org/2000/svg">
<path d="M26.4921 22.1152C25.3627 22.8682 24.0508 23.2662 22.6982 23.2662C21.3457 23.2662 20.0338 22.8682 18.9044 22.1152L0.302258 9.71342C0.199567 9.64476 0.0987765 9.57329 0 9.49911L0 29.8208C0 32.1508 1.89078 33.9999 4.17904 33.9999H41.2173C43.5472 33.9999 45.3963 32.1091 45.3963 29.8208V9.49902C45.2973 9.5734 45.1964 9.64501 45.0934 9.71377L26.4921 22.1152Z" fill="#fff"/>
<path d="M1.77773 7.50033L20.3799 19.9022C21.0841 20.3717 21.8911 20.6064 22.6981 20.6064C23.5052 20.6064 24.3123 20.3716 25.0165 19.9022L43.6187 7.50033C44.7319 6.75865 45.3964 5.51735 45.3964 4.17762C45.3964 1.87402 43.5223 0 41.2188 0H4.17762C1.87411 8.86648e-05 2.19898e-06 1.87411 2.19898e-06 4.17984C-0.000688376 4.83703 0.161284 5.48417 0.471473 6.06355C0.781662 6.64293 1.23042 7.13653 1.77773 7.50033Z" fill="white"/>
</svg>
