<svg width="512" height="512" viewBox="0 0 512 512" fill="none" xmlns="http://www.w3.org/2000/svg">
<path d="M256 0C114.637 0 0 114.637 0 256C0 397.363 114.637 512 256 512C397.363 512 512 397.363 512 256C512 114.637 397.363 0 256 0ZM181.61 387H119.262V199.426H181.609L181.61 387ZM150.437 173.812H150.031C129.109 173.812 115.578 159.41 115.578 141.41C115.578 123.004 129.523 109 150.852 109C172.18 109 185.305 123.004 185.711 141.41C185.711 159.41 172.18 173.813 150.437 173.813V173.812ZM406.423 387H344.083V286.652C344.083 261.434 335.056 244.234 312.497 244.234C295.274 244.234 285.017 255.836 280.509 267.035C278.86 271.043 278.458 276.645 278.458 282.25V387H216.114C216.114 387 216.931 217.023 216.114 199.426H278.458V225.984C286.743 213.204 301.568 195.024 334.646 195.024C375.666 195.024 406.423 221.832 406.423 279.445V387Z" fill="#fff"/>
</svg>
