<svg width="252" height="350" viewBox="0 0 252 350" fill="none" xmlns="http://www.w3.org/2000/svg">
<path fill-rule="evenodd" clip-rule="evenodd" d="M199.747 284H180.732H144.764L128.247 283.972L128.028 284C126.327 283.945 123.803 280.362 123.775 278.653C123.501 260.93 118.26 246.707 109.097 231.768C102.539 221.073 94.8571 211.15 88.7936 200.125C81.8797 187.556 78.066 175.098 77.1606 160.71C76.0631 143.345 80.5901 126.779 90.7691 112.639C107.67 89.1554 136.533 77 164.902 77C204.932 77 244.852 101.586 251.766 143.152C252.068 146.9 252.068 150.677 251.821 154.425C250.861 169.447 246.773 182.347 239.42 195.412C232.972 206.878 224.796 217.187 217.91 228.35C208.581 243.454 203.204 257.953 202.902 276.062V277.881C202.874 280.72 201.887 282.649 199.747 284Z" fill="#87B7E4"/>
<path fill-rule="evenodd" clip-rule="evenodd" d="M174.5 283.938H169.5H147.5L128.366 283.525L128.146 283.553C126.441 283.498 123.911 279.922 123.883 278.217C123.608 260.535 118.356 246.345 109.171 231.467C102.598 220.797 94.8984 210.897 88.8209 199.897C81.8909 187.357 78.0685 174.927 77.161 160.572C76.061 143.247 80.5984 126.72 90.8009 112.612C107.741 89.1825 136.671 77.055 165.106 77.055C173.576 77.055 182.046 78.155 190.186 80.2725C208.941 92.565 223.131 112.062 226.981 137.307C227.283 141.377 227.283 145.502 227.036 149.572C226.073 165.907 221.976 179.96 214.606 194.178C208.143 206.663 199.948 217.883 193.046 230.038C183.696 246.483 178.306 262.267 178.003 281.957V283.938C176.5 284 176.5 284 174.5 283.938Z" fill="#97CAFA" fill-opacity="0.6"/>
<path fill-rule="evenodd" clip-rule="evenodd" d="M177.687 283.974L185.379 195.433H196.519C201.344 195.433 205.701 193.57 208.871 190.552C212.042 187.534 214 183.362 214 178.795C214 174.203 212.042 170.057 208.871 167.039C205.701 164.021 201.317 162.158 196.519 162.158C191.776 162.158 187.64 163.969 184.58 166.881C181.464 169.847 179.451 173.967 179.065 178.48L178.183 187.98H144.076L143.193 178.48C142.78 173.993 140.767 169.847 137.651 166.881C134.591 163.969 130.455 162.158 125.712 162.158C120.914 162.158 116.53 164.021 113.36 167.065C110.189 170.083 108.231 174.229 108.231 178.822C108.231 183.414 110.189 187.56 113.36 190.578C116.53 193.596 120.887 195.459 125.712 195.459H136.851L144.544 284H152.403L144.737 195.459H177.494L169.828 284H177.687V283.974ZM186.069 187.928L186.868 179.084C187.117 176.355 188.302 173.888 190.122 172.13C191.776 170.555 193.982 169.584 196.519 169.584C199.166 169.584 201.565 170.608 203.329 172.287C205.066 173.941 206.169 176.25 206.169 178.769C206.169 181.288 205.094 183.598 203.357 185.251H203.329C201.592 186.904 199.166 187.954 196.519 187.954H186.069V187.928ZM136.217 187.928H125.767C123.12 187.928 120.721 186.904 118.957 185.225C117.22 183.571 116.117 181.262 116.117 178.743C116.117 176.224 117.192 173.941 118.957 172.261V172.235C120.694 170.582 123.093 169.558 125.767 169.558C128.304 169.558 130.51 170.529 132.164 172.104C133.984 173.862 135.17 176.329 135.418 179.058L136.217 187.928ZM132.385 106.971C134.866 105.974 136.052 103.244 135.004 100.856C133.956 98.4945 131.089 97.3661 128.58 98.3633C126.539 99.1768 124.609 100.069 122.789 100.988C120.914 101.932 119.095 102.982 117.302 104.11C115.041 105.527 114.435 108.44 115.924 110.592C117.413 112.744 120.473 113.321 122.734 111.904C124.251 110.96 125.822 110.067 127.449 109.228C129.104 108.388 130.758 107.627 132.385 106.971ZM110.795 121.876C112.587 119.934 112.367 116.969 110.327 115.263C108.286 113.558 105.17 113.767 103.378 115.709C98.1945 121.378 94.031 127.938 91.2186 135.076C88.4889 141.978 87 149.43 87 157.172C87 159.77 89.2058 161.843 91.9079 161.843C94.6101 161.843 96.8159 159.744 96.8159 157.172C96.8159 150.559 98.0842 144.208 100.4 138.383C102.799 132.321 106.356 126.757 110.795 121.876Z" fill="white"/>
<path fill-rule="evenodd" clip-rule="evenodd" d="M123.055 330.255C123.605 335.947 128.473 340.43 134.275 340.43H142.91L146.265 345.93C148.19 349.092 149.318 349.285 153.03 349.285H173.353C177.065 349.285 178.193 349.092 180.118 345.93L183.472 340.43H192.107C197.855 340.43 202.64 336.058 203.3 330.475V326.515C202.998 325.222 201.843 324.26 200.44 324.26H125.943C124.568 324.26 123.385 325.25 123.082 326.542C123.055 326.652 123.138 326.9 123.055 326.955V330.255ZM199.45 304.323H126.988C124.788 304.323 123 306.11 123 308.31V314.47C123 316.67 124.788 318.457 126.988 318.457H199.45C201.65 318.457 203.438 316.67 203.438 314.47V308.31C203.438 306.11 201.65 304.323 199.45 304.323ZM199.285 284H127.153C124.87 284 123 285.87 123 288.152V294.588C123 296.87 124.87 298.74 127.153 298.74H199.285C201.567 298.74 203.438 296.87 203.438 294.588V288.152C203.438 285.842 201.567 284 199.285 284Z" fill="url(#paint0_linear_30_2)"/>
<path d="M28.93 209.281C44.9076 209.281 57.86 196.329 57.86 180.351C57.86 164.374 44.9076 151.421 28.93 151.421C12.9524 151.421 0 164.374 0 180.351C0 196.329 12.9524 209.281 28.93 209.281Z" fill="#0086F4" fill-opacity="0.5"/>
<path fill-rule="evenodd" clip-rule="evenodd" d="M1.32001 179.361C1.32001 163.384 14.2725 150.431 30.25 150.431C46.2275 150.431 59.18 163.384 59.18 179.361C59.18 195.339 46.2275 208.291 30.25 208.291C14.2725 208.291 1.32001 195.339 1.32001 179.361Z" fill="url(#paint1_linear_30_2)" fill-opacity="0.5"/>
<path fill-rule="evenodd" clip-rule="evenodd" d="M5.3075 179.939C5.3075 166.381 16.3075 155.381 29.865 155.381C43.4225 155.381 54.4225 166.381 54.4225 179.939C54.4225 193.496 43.4225 204.496 29.865 204.496C16.3075 204.496 5.3075 193.496 5.3075 179.939Z" fill="#0086F4" fill-opacity="0.5"/>
<path fill-rule="evenodd" clip-rule="evenodd" d="M5.6925 179.361C5.6925 165.804 16.6925 154.804 30.25 154.804C43.8075 154.804 54.8075 165.804 54.8075 179.361C54.8075 192.919 43.8075 203.919 30.25 203.919C16.6925 203.919 5.6925 192.919 5.6925 179.361Z" fill="#7ED7FF" fill-opacity="0.5"/>
<path opacity="0.29" fill-rule="evenodd" clip-rule="evenodd" d="M10.9725 186.456C7.86502 174.879 14.74 162.999 26.29 159.919C33.055 158.104 39.93 159.699 45.0725 163.659C39.765 158.351 31.8725 155.931 24.09 158.021C12.5125 161.129 5.66502 173.009 8.77252 184.586C10.065 189.399 12.87 193.386 16.5275 196.191C13.9425 193.551 11.99 190.251 10.9725 186.456Z" fill="#AAD9FF" fill-opacity="0.51"/>
<path d="M34.3475 137.149C50.3251 137.149 63.2775 124.196 63.2775 108.219C63.2775 92.2411 50.3251 79.2887 34.3475 79.2887C18.3699 79.2887 5.41748 92.2411 5.41748 108.219C5.41748 124.196 18.3699 137.149 34.3475 137.149Z" fill="#0086F4" fill-opacity="0.5"/>
<path d="M35.695 136.159C51.6726 136.159 64.625 123.206 64.625 107.229C64.625 91.2511 51.6726 78.2987 35.695 78.2987C19.7174 78.2987 6.76501 91.2511 6.76501 107.229C6.76501 123.206 19.7174 136.159 35.695 136.159Z" fill="url(#paint2_linear_30_2)" fill-opacity="0.5"/>
<path fill-rule="evenodd" clip-rule="evenodd" d="M10.725 107.806C10.725 94.2487 21.725 83.2487 35.2825 83.2487C48.84 83.2487 59.84 94.2487 59.84 107.806C59.84 121.364 48.84 132.364 35.2825 132.364C21.725 132.364 10.725 121.364 10.725 107.806Z" fill="#0086F4" fill-opacity="0.5"/>
<path fill-rule="evenodd" clip-rule="evenodd" d="M11.11 107.229C11.11 93.6712 22.11 82.6712 35.6675 82.6712C49.225 82.6712 60.225 93.6712 60.225 107.229C60.225 120.786 49.225 131.786 35.6675 131.786C22.11 131.786 11.11 120.786 11.11 107.229Z" fill="#7ED7FF" fill-opacity="0.5"/>
<path opacity="0.29" fill-rule="evenodd" clip-rule="evenodd" d="M16.39 114.324C13.2825 102.746 20.1575 90.8662 31.7075 87.7587C38.4725 85.9437 45.3475 87.5387 50.49 91.4987C45.1825 86.1912 37.29 83.7712 29.5075 85.8612C17.93 88.9687 11.0825 100.849 14.19 112.426C15.4825 117.239 18.2875 121.226 21.945 124.031C19.3875 121.419 17.4075 118.119 16.39 114.324Z" fill="#AAD9FF" fill-opacity="0.51"/>
<path d="M88.5775 81.1037C104.555 81.1037 117.508 68.1513 117.508 52.1737C117.508 36.1961 104.555 23.2437 88.5775 23.2437C72.5999 23.2437 59.6475 36.1961 59.6475 52.1737C59.6475 68.1513 72.5999 81.1037 88.5775 81.1037Z" fill="#0086F4" fill-opacity="0.5"/>
<path d="M101.068 77.8881C115.808 71.7227 122.76 54.7755 116.594 40.0353C110.429 25.2952 93.4818 18.3439 78.7417 24.5092C64.0015 30.6746 57.0502 47.6218 63.2156 62.362C69.3809 77.1022 86.3282 84.0534 101.068 77.8881Z" fill="url(#paint3_linear_30_2)" fill-opacity="0.5"/>
<path fill-rule="evenodd" clip-rule="evenodd" d="M64.955 51.7887C64.955 38.2312 75.955 27.2312 89.5125 27.2312C103.07 27.2312 114.07 38.2312 114.07 51.7887C114.07 65.3462 103.07 76.3462 89.5125 76.3462C75.9275 76.3462 64.955 65.3462 64.955 51.7887Z" fill="#0086F4" fill-opacity="0.5"/>
<path fill-rule="evenodd" clip-rule="evenodd" d="M65.34 51.2112C65.34 37.6537 76.34 26.6537 89.8975 26.6537C103.455 26.6537 114.455 37.6537 114.455 51.2112C114.455 64.7687 103.455 75.7687 89.8975 75.7687C76.34 75.7687 65.34 64.7687 65.34 51.2112Z" fill="#7ED7FF" fill-opacity="0.5"/>
<path opacity="0.29" fill-rule="evenodd" clip-rule="evenodd" d="M70.62 58.3062C67.5125 46.7287 74.3875 34.8487 85.9375 31.7412C92.7025 29.9262 99.5775 31.5212 104.72 35.4812C99.4125 30.1737 91.52 27.7537 83.7375 29.8437C72.16 32.9512 65.3125 44.8312 68.42 56.4087C69.7125 61.2212 72.5175 65.2087 76.175 68.0137C73.59 65.4012 71.6375 62.1012 70.62 58.3062Z" fill="#AAD9FF" fill-opacity="0.51"/>
<path d="M188.709 41.5184C192.401 25.9734 182.793 10.3783 167.248 6.6858C151.703 2.99333 136.108 12.6018 132.415 28.1468C128.723 43.6919 138.331 59.287 153.876 62.9795C169.421 66.672 185.016 57.0635 188.709 41.5184Z" fill="#0086F4" fill-opacity="0.5"/>
<path fill-rule="evenodd" clip-rule="evenodd" d="M132.935 33.8312C132.935 17.8537 145.887 4.9012 161.865 4.9012C177.842 4.9012 190.795 17.8537 190.795 33.8312C190.795 49.8087 177.842 62.7612 161.865 62.7612C145.887 62.7612 132.935 49.8087 132.935 33.8312Z" fill="url(#paint4_linear_30_2)" fill-opacity="0.5"/>
<path fill-rule="evenodd" clip-rule="evenodd" d="M136.922 34.4087C136.922 20.8512 147.922 9.8512 161.48 9.8512C175.037 9.8512 186.037 20.8512 186.037 34.4087C186.037 47.9662 175.037 58.9662 161.48 58.9662C147.922 58.9662 136.922 47.9662 136.922 34.4087Z" fill="#0086F4" fill-opacity="0.5"/>
<path fill-rule="evenodd" clip-rule="evenodd" d="M137.307 33.8312C137.307 20.2737 148.307 9.2737 161.865 9.2737C175.422 9.2737 186.423 20.2737 186.423 33.8312C186.423 47.3887 175.422 58.3887 161.865 58.3887C148.307 58.3887 137.307 47.3887 137.307 33.8312Z" fill="#7ED7FF" fill-opacity="0.5"/>
<path opacity="0.29" fill-rule="evenodd" clip-rule="evenodd" d="M142.588 40.9262C139.48 29.3487 146.355 17.4687 157.905 14.3612C164.67 12.5462 171.545 14.1412 176.688 18.1012C171.38 12.7937 163.487 10.3737 155.705 12.4637C144.127 15.5712 137.28 27.4512 140.388 39.0287C141.68 43.8412 144.485 47.8287 148.143 50.6337C145.585 48.0212 143.605 44.7487 142.588 40.9262Z" fill="#AAD9FF" fill-opacity="0.51"/>
<path fill-rule="evenodd" clip-rule="evenodd" d="M81.4825 47.1962V42.5762H76.8625V40.6237H81.4825V36.0312H83.435V40.6237H88.055V42.5762H83.435V47.1962H81.4825Z" fill="#0086F4" fill-opacity="0.5"/>
<path d="M103.097 42.7962H96.6625V44.8862H103.097V42.7962Z" fill="#0086F4" fill-opacity="0.5"/>
<path fill-rule="evenodd" clip-rule="evenodd" d="M75.68 64.7962L80.1625 58.4437L76.01 52.5312H78.5675L80.52 55.4187C80.8775 55.9687 81.1525 56.4087 81.3725 56.7387C81.73 56.2437 82.0325 55.8037 82.3075 55.3912L84.3425 52.5037H86.8725L82.6925 58.4162L87.1475 64.7687H84.6175L82.0875 60.9737L81.51 60.0662L78.2375 64.7687H75.68V64.7962ZM93.5825 60.0662V58.5812H107.332V60.0662H93.5825ZM99.275 57.4812V55.1162H101.64V57.4812H99.275ZM99.275 63.5862V61.2212H101.64V63.5862H99.275Z" fill="#0086F4" fill-opacity="0.5"/>
<path fill-rule="evenodd" clip-rule="evenodd" d="M81.7025 46.7837V42.1362H77.0825V40.2112H81.7025V35.5912H83.655V40.2112H88.275V42.1362H83.655V46.7837H81.7025Z" fill="white" fill-opacity="0.96"/>
<path d="M103.318 42.3562H96.8825V44.4462H103.318V42.3562Z" fill="white" fill-opacity="0.96"/>
<path fill-rule="evenodd" clip-rule="evenodd" d="M75.9 64.3562L80.3825 58.0037L76.23 52.0912H78.7875L80.7125 54.9787C81.07 55.5287 81.345 55.9687 81.565 56.2987C81.9225 55.8037 82.225 55.3637 82.5 54.9512L84.535 52.0637H87.065L82.885 57.9762L87.34 64.3287H84.81L82.28 60.5337L81.7025 59.6262L78.43 64.3287H75.9V64.3562ZM93.8025 59.6262V58.1412H107.553V59.6262H93.8025ZM99.495 57.0412V54.6762H101.86V57.0412H99.495ZM99.495 63.1462V60.7812H101.86V63.1462H99.495Z" fill="white" fill-opacity="0.96"/>
<path fill-rule="evenodd" clip-rule="evenodd" d="M156.117 25.1962C156.172 25.3337 156.117 25.4987 156.007 25.5537C155.87 25.6087 155.705 25.5537 155.65 25.4437L153.89 21.8962C153.862 21.8687 153.862 21.8137 153.862 21.7862V18.2387C153.862 18.1012 153.972 17.9637 154.137 17.9637C154.275 17.9637 154.412 18.0737 154.412 18.2387V21.7037L156.117 25.1962ZM162.25 25.5537C162.25 25.6912 162.14 25.8287 161.975 25.8012C161.837 25.8012 161.7 25.6912 161.727 25.5262L161.755 24.2337L159.61 21.9237C159.555 21.8687 159.527 21.8137 159.527 21.7312V18.2937C159.527 18.1562 159.637 18.0187 159.802 18.0187C159.94 18.0187 160.077 18.1287 160.077 18.2937V21.6212L162.222 23.9587C162.277 24.0137 162.305 24.0687 162.305 24.1512L162.25 25.5537ZM166.237 18.2387C166.237 18.1012 166.347 17.9637 166.512 17.9637C166.65 17.9637 166.787 18.0737 166.787 18.2387V21.7862C166.787 21.8687 166.732 21.9512 166.677 22.0062L165.027 23.4362V25.3062C165.027 25.4437 164.917 25.5812 164.752 25.5812C164.615 25.5812 164.477 25.4712 164.477 25.3062V23.2987C164.477 23.2162 164.505 23.1612 164.56 23.1062L166.237 21.6487V18.2387ZM171.133 40.9537C170.995 41.0087 170.83 40.9537 170.775 40.8437C170.72 40.7062 170.775 40.5412 170.885 40.4862L174.433 38.7262C174.46 38.6987 174.515 38.6987 174.542 38.6987H178.09C178.227 38.6987 178.365 38.8087 178.365 38.9737C178.365 39.1112 178.255 39.2487 178.09 39.2487H174.625L171.133 40.9537ZM170.775 34.4362C170.637 34.4362 170.5 34.3262 170.5 34.1887C170.5 34.0512 170.61 33.9137 170.747 33.9137L172.15 33.8862C172.205 33.8862 172.232 33.8862 172.287 33.9137L174.625 35.2062H178.09C178.227 35.2062 178.365 35.3162 178.365 35.4812C178.365 35.6187 178.255 35.7562 178.09 35.7562H174.542C174.487 35.7562 174.46 35.7562 174.405 35.7287L172.067 34.4362H170.775ZM178.09 28.0837C178.227 28.0837 178.365 28.1937 178.365 28.3587C178.365 28.4962 178.255 28.6337 178.09 28.6337H174.68L173.222 30.3112C173.167 30.3662 173.085 30.3937 173.03 30.3937H171.022C170.885 30.3937 170.747 30.2837 170.747 30.1187C170.747 29.9812 170.857 29.8437 171.022 29.8437H172.892L174.322 28.1937C174.377 28.1387 174.46 28.0837 174.542 28.0837H178.09ZM165.495 44.3912C165.44 44.2537 165.495 44.0887 165.633 44.0337C165.77 43.9787 165.935 44.0337 165.99 44.1712L167.392 47.2512C167.42 47.2787 167.42 47.3337 167.42 47.3887V49.1487C167.42 49.2037 167.42 49.2312 167.392 49.2862L166.237 51.3762C166.155 51.5137 166.017 51.5412 165.88 51.4862C165.742 51.4037 165.715 51.2662 165.77 51.1287L166.897 49.0937V47.4437L165.495 44.3912ZM151.277 40.9537C151.415 41.0087 151.58 40.9537 151.635 40.8437C151.69 40.7062 151.635 40.5412 151.525 40.4862L147.977 38.7262C147.95 38.6987 147.895 38.6987 147.867 38.6987H144.32C144.182 38.6987 144.045 38.8087 144.045 38.9737C144.045 39.1112 144.155 39.2487 144.32 39.2487H147.785L151.277 40.9537ZM151.635 34.4362C151.772 34.4362 151.91 34.3262 151.91 34.1887C151.91 34.0512 151.8 33.9137 151.662 33.9137L150.26 33.8862C150.205 33.8862 150.177 33.8862 150.122 33.9137L147.785 35.2062H144.32C144.182 35.2062 144.045 35.3162 144.045 35.4812C144.045 35.6187 144.155 35.7562 144.32 35.7562H147.867C147.922 35.7562 147.95 35.7562 148.005 35.7287L150.342 34.4362H151.635ZM144.32 28.0837C144.182 28.0837 144.045 28.1937 144.045 28.3587C144.045 28.4962 144.155 28.6337 144.32 28.6337H147.73L149.187 30.3112C149.242 30.3662 149.325 30.3937 149.38 30.3937H151.387C151.525 30.3937 151.662 30.2837 151.662 30.1187C151.662 29.9812 151.552 29.8437 151.387 29.8437H149.517L148.087 28.1937C148.032 28.1387 147.95 28.0837 147.867 28.0837H144.32Z" fill="#EAF4FF"/>
<path fill-rule="evenodd" clip-rule="evenodd" d="M144.045 27.1487C144.98 27.1487 145.75 27.9187 145.75 28.8537C145.75 29.7887 144.98 30.5587 144.045 30.5587C143.11 30.5587 142.34 29.7887 142.34 28.8537C142.367 27.9187 143.11 27.1487 144.045 27.1487Z" fill="#C3DFFA" fill-opacity="0.5"/>
<path fill-rule="evenodd" clip-rule="evenodd" d="M145.448 29.8712C145.145 30.2837 144.65 30.5587 144.1 30.5587C143.165 30.5587 142.395 29.7887 142.395 28.8537C142.395 28.2762 142.698 27.7537 143.138 27.4512C142.918 27.7262 142.808 28.0837 142.808 28.4687C142.808 29.4037 143.578 30.1737 144.513 30.1737C144.843 30.1737 145.173 30.0637 145.448 29.8712Z" fill="white" fill-opacity="0.96"/>
<path fill-rule="evenodd" clip-rule="evenodd" d="M144.045 27.0662C144.54 27.0662 144.98 27.2587 145.283 27.5887C145.613 27.9187 145.805 28.3587 145.805 28.8262C145.805 29.3212 145.613 29.7612 145.283 30.0637C144.953 30.3937 144.513 30.5862 144.045 30.5862C143.55 30.5862 143.11 30.3937 142.808 30.0637C142.478 29.7337 142.285 29.2937 142.285 28.8262C142.285 28.3312 142.478 27.8912 142.808 27.5887C143.138 27.2862 143.578 27.0662 144.045 27.0662ZM145.2 27.6987C144.898 27.3962 144.513 27.2312 144.045 27.2312C143.578 27.2312 143.193 27.4237 142.89 27.6987C142.588 28.0012 142.423 28.3862 142.423 28.8537C142.423 29.2937 142.615 29.7062 142.89 30.0087C143.193 30.3112 143.578 30.4762 144.045 30.4762C144.513 30.4762 144.898 30.2837 145.2 30.0087C145.503 29.7062 145.668 29.3212 145.668 28.8537C145.668 28.4137 145.503 28.0012 145.2 27.6987Z" fill="#4F8ECC" fill-opacity="0.5"/>
<path fill-rule="evenodd" clip-rule="evenodd" d="M144.678 33.6112C145.613 33.6112 146.383 34.3812 146.383 35.3162C146.383 36.2512 145.613 37.0212 144.678 37.0212C143.743 37.0212 142.973 36.2512 142.973 35.3162C142.973 34.3537 143.743 33.6112 144.678 33.6112Z" fill="#C3DFFA" fill-opacity="0.5"/>
<path fill-rule="evenodd" clip-rule="evenodd" d="M146.08 36.3337C145.777 36.7462 145.282 37.0212 144.732 37.0212C143.797 37.0212 143.027 36.2512 143.027 35.3162C143.027 34.7387 143.33 34.2162 143.77 33.9137C143.55 34.1887 143.44 34.5462 143.44 34.9312C143.44 35.8662 144.21 36.6362 145.145 36.6362C145.475 36.6087 145.805 36.4987 146.08 36.3337Z" fill="white" fill-opacity="0.96"/>
<path fill-rule="evenodd" clip-rule="evenodd" d="M144.677 33.5287C145.172 33.5287 145.612 33.7212 145.915 34.0512C146.245 34.3812 146.437 34.8212 146.437 35.2887C146.437 35.7837 146.245 36.2237 145.915 36.5262C145.585 36.8562 145.145 37.0487 144.677 37.0487C144.182 37.0487 143.742 36.8562 143.44 36.5262C143.11 36.1962 142.917 35.7562 142.917 35.2887C142.917 34.7937 143.11 34.3537 143.44 34.0512C143.742 33.7212 144.182 33.5287 144.677 33.5287ZM145.832 34.1612C145.53 33.8587 145.145 33.6937 144.677 33.6937C144.21 33.6937 143.825 33.8862 143.522 34.1612C143.22 34.4637 143.055 34.8487 143.055 35.3162C143.055 35.7562 143.247 36.1687 143.522 36.4712C143.825 36.7737 144.21 36.9387 144.677 36.9387C145.145 36.9387 145.53 36.7462 145.832 36.4712C146.135 36.1687 146.3 35.7837 146.3 35.3162C146.3 34.8487 146.107 34.4362 145.832 34.1612Z" fill="#4F8ECC" fill-opacity="0.5"/>
<path fill-rule="evenodd" clip-rule="evenodd" d="M142.807 37.2412C143.742 37.2412 144.512 38.0112 144.512 38.9462C144.512 39.8812 143.742 40.6512 142.807 40.6512C141.872 40.6512 141.102 39.8812 141.102 38.9462C141.102 38.0112 141.872 37.2412 142.807 37.2412Z" fill="#C3DFFA" fill-opacity="0.5"/>
<path fill-rule="evenodd" clip-rule="evenodd" d="M144.21 39.9637C143.907 40.3762 143.412 40.6512 142.862 40.6512C141.927 40.6512 141.157 39.8812 141.157 38.9462C141.157 38.3687 141.46 37.8462 141.9 37.5437C141.68 37.8187 141.57 38.1762 141.57 38.5612C141.57 39.4962 142.34 40.2662 143.275 40.2662C143.605 40.2662 143.935 40.1562 144.21 39.9637Z" fill="white" fill-opacity="0.96"/>
<path fill-rule="evenodd" clip-rule="evenodd" d="M142.807 37.1862C143.302 37.1862 143.742 37.3787 144.045 37.7087C144.375 38.0387 144.567 38.4787 144.567 38.9462C144.567 39.4412 144.375 39.8812 144.045 40.1837C143.715 40.5137 143.275 40.7062 142.807 40.7062C142.312 40.7062 141.872 40.5137 141.57 40.1837C141.24 39.8537 141.047 39.4137 141.047 38.9462C141.047 38.4512 141.24 38.0112 141.57 37.7087C141.872 37.3787 142.312 37.1862 142.807 37.1862ZM143.962 37.7912C143.66 37.4887 143.275 37.3237 142.807 37.3237C142.34 37.3237 141.955 37.5162 141.652 37.7912C141.35 38.0937 141.185 38.4787 141.185 38.9462C141.185 39.3862 141.377 39.7987 141.652 40.1012C141.955 40.4037 142.34 40.5687 142.807 40.5687C143.275 40.5687 143.66 40.3762 143.962 40.1012C144.265 39.7987 144.43 39.4137 144.43 38.9462C144.43 38.5062 144.237 38.0937 143.962 37.7912Z" fill="#4F8ECC" fill-opacity="0.5"/>
<path fill-rule="evenodd" clip-rule="evenodd" d="M160.518 44.0887C160.518 43.9512 160.628 43.8137 160.793 43.8137C160.93 43.8137 161.068 43.9237 161.068 44.0887L161.095 48.4612C161.095 48.4887 161.095 48.5437 161.068 48.5712L159.555 52.0087C159.5 52.1462 159.335 52.2012 159.198 52.1462C159.06 52.0912 159.005 51.9262 159.06 51.7887L160.545 48.4062L160.518 44.0887ZM154.385 51.9812C154.385 52.1187 154.275 52.2562 154.11 52.2562C153.973 52.2562 153.835 52.1462 153.835 51.9812V48.4337C153.835 48.3512 153.89 48.2687 153.945 48.2137L155.595 46.7837V44.9137C155.595 44.7762 155.705 44.6387 155.87 44.6387C156.008 44.6387 156.145 44.7487 156.145 44.9137V46.9212C156.145 47.0037 156.118 47.0587 156.063 47.1137L154.385 48.5712V51.9812Z" fill="#EAF4FF"/>
<path fill-rule="evenodd" clip-rule="evenodd" d="M151.223 24.4262H170.142C170.637 24.4262 171.05 24.8387 171.05 25.3337V44.3087C171.05 44.8037 170.637 45.2162 170.142 45.2162H151.223C150.728 45.2162 150.315 44.8037 150.315 44.3087V25.3337C150.315 24.8112 150.728 24.4262 151.223 24.4262Z" fill="#61A0E0" fill-opacity="0.5"/>
<path fill-rule="evenodd" clip-rule="evenodd" d="M151.607 24.4262H170.17C170.665 24.4262 171.05 24.8112 171.05 25.3062V43.8687C171.05 44.3637 170.665 44.7487 170.17 44.7487H151.607C151.112 44.7487 150.727 44.3637 150.727 43.8687V25.3062C150.7 24.8387 151.112 24.4262 151.607 24.4262Z" fill="white" fill-opacity="0.96"/>
<path fill-rule="evenodd" clip-rule="evenodd" d="M154.523 28.0287H166.87C167.2 28.0287 167.448 28.3037 167.448 28.6062V40.9812C167.448 41.3112 167.173 41.5587 166.87 41.5587H154.523C154.193 41.5587 153.945 41.2837 153.945 40.9812V28.6062C153.918 28.3037 154.193 28.0287 154.523 28.0287Z" fill="#61A0E0" fill-opacity="0.5"/>
<path fill-rule="evenodd" clip-rule="evenodd" d="M154.825 27.9737H166.925C167.255 27.9737 167.502 28.2212 167.502 28.5512V40.6512C167.502 40.9812 167.255 41.2287 166.925 41.2287H154.825C154.495 41.2287 154.247 40.9812 154.247 40.6512V28.5512C154.247 28.2212 154.495 27.9737 154.825 27.9737Z" fill="#DFEDFA" fill-opacity="0.5"/>
<path fill-rule="evenodd" clip-rule="evenodd" d="M154 15.1312C154.935 15.1312 155.705 15.9012 155.705 16.8362C155.705 17.7712 154.935 18.5412 154 18.5412C153.065 18.5412 152.295 17.7712 152.295 16.8362C152.295 15.9012 153.065 15.1312 154 15.1312Z" fill="#C3DFFA" fill-opacity="0.5"/>
<path fill-rule="evenodd" clip-rule="evenodd" d="M155.402 17.8537C155.1 18.2662 154.605 18.5412 154.055 18.5412C153.12 18.5412 152.35 17.7712 152.35 16.8362C152.35 16.2587 152.652 15.7362 153.092 15.4337C152.872 15.7087 152.762 16.0662 152.762 16.4512C152.762 17.3862 153.532 18.1562 154.467 18.1562C154.797 18.1287 155.127 18.0187 155.402 17.8537Z" fill="white" fill-opacity="0.96"/>
<path fill-rule="evenodd" clip-rule="evenodd" d="M154 15.0487C154.495 15.0487 154.935 15.2412 155.237 15.5712C155.567 15.9012 155.76 16.3412 155.76 16.8087C155.76 17.2762 155.567 17.7437 155.237 18.0462C154.907 18.3762 154.467 18.5687 154 18.5687C153.505 18.5687 153.065 18.3762 152.762 18.0462C152.432 17.7162 152.24 17.2762 152.24 16.8087C152.24 16.3412 152.432 15.8737 152.762 15.5712C153.092 15.2412 153.532 15.0487 154 15.0487ZM155.155 15.6812C154.853 15.3787 154.467 15.2137 154 15.2137C153.532 15.2137 153.147 15.4062 152.845 15.6812C152.542 15.9837 152.377 16.3687 152.377 16.8362C152.377 17.3037 152.57 17.6887 152.845 17.9912C153.147 18.2937 153.532 18.4587 154 18.4587C154.467 18.4587 154.853 18.2662 155.155 17.9912C155.458 17.6887 155.623 17.3037 155.623 16.8362C155.623 16.3687 155.458 15.9562 155.155 15.6812Z" fill="#4F8ECC" fill-opacity="0.5"/>
<path fill-rule="evenodd" clip-rule="evenodd" d="M159.83 15.1312C160.765 15.1312 161.535 15.9012 161.535 16.8362C161.535 17.7712 160.765 18.5412 159.83 18.5412C158.895 18.5412 158.125 17.7712 158.125 16.8362C158.125 15.9012 158.895 15.1312 159.83 15.1312Z" fill="#C3DFFA" fill-opacity="0.5"/>
<path fill-rule="evenodd" clip-rule="evenodd" d="M161.233 17.8537C160.93 18.2662 160.435 18.5412 159.885 18.5412C158.95 18.5412 158.18 17.7712 158.18 16.8362C158.18 16.2587 158.483 15.7362 158.923 15.4337C158.703 15.7087 158.592 16.0662 158.592 16.4512C158.592 17.3862 159.363 18.1562 160.298 18.1562C160.628 18.1287 160.958 18.0187 161.233 17.8537Z" fill="white" fill-opacity="0.96"/>
<path fill-rule="evenodd" clip-rule="evenodd" d="M159.83 15.0487C160.325 15.0487 160.765 15.2412 161.067 15.5712C161.397 15.9012 161.59 16.3412 161.59 16.8087C161.59 17.2762 161.397 17.7437 161.067 18.0462C160.737 18.3762 160.297 18.5687 159.83 18.5687C159.335 18.5687 158.895 18.3762 158.592 18.0462C158.262 17.7162 158.07 17.2762 158.07 16.8087C158.07 16.3412 158.262 15.8737 158.592 15.5712C158.922 15.2412 159.362 15.0487 159.83 15.0487ZM160.985 15.6812C160.683 15.3787 160.297 15.2137 159.83 15.2137C159.39 15.2137 158.977 15.4062 158.675 15.6812C158.372 15.9837 158.208 16.3687 158.208 16.8362C158.208 17.3037 158.4 17.6887 158.675 17.9912C158.977 18.2937 159.362 18.4587 159.83 18.4587C160.27 18.4587 160.683 18.2662 160.985 17.9912C161.288 17.6887 161.452 17.3037 161.452 16.8362C161.452 16.3687 161.288 15.9562 160.985 15.6812Z" fill="#4F8ECC" fill-opacity="0.5"/>
<path fill-rule="evenodd" clip-rule="evenodd" d="M166.21 15.6812C167.145 15.6812 167.915 16.4512 167.915 17.3862C167.915 18.3212 167.145 19.0912 166.21 19.0912C165.275 19.0912 164.505 18.3212 164.505 17.3862C164.533 16.4237 165.275 15.6812 166.21 15.6812Z" fill="#C3DFFA" fill-opacity="0.5"/>
<path fill-rule="evenodd" clip-rule="evenodd" d="M167.612 18.4037C167.31 18.8162 166.815 19.0912 166.265 19.0912C165.33 19.0912 164.56 18.3212 164.56 17.3862C164.56 16.8087 164.862 16.2862 165.302 15.9837C165.082 16.2587 164.972 16.6162 164.972 17.0012C164.972 17.9362 165.742 18.7062 166.677 18.7062C167.007 18.6787 167.337 18.5687 167.612 18.4037Z" fill="white" fill-opacity="0.96"/>
<path fill-rule="evenodd" clip-rule="evenodd" d="M166.21 15.5987C166.705 15.5987 167.145 15.7912 167.448 16.1212C167.778 16.4512 167.97 16.8912 167.97 17.3587C167.97 17.8537 167.778 18.2937 167.448 18.5962C167.118 18.9262 166.678 19.1187 166.21 19.1187C165.715 19.1187 165.275 18.9262 164.973 18.5962C164.643 18.2662 164.45 17.8262 164.45 17.3587C164.45 16.8912 164.643 16.4237 164.973 16.1212C165.303 15.7912 165.743 15.5987 166.21 15.5987ZM167.365 16.2312C167.063 15.9287 166.678 15.7637 166.21 15.7637C165.77 15.7637 165.357 15.9562 165.055 16.2312C164.752 16.5337 164.588 16.9187 164.588 17.3862C164.588 17.8262 164.78 18.2387 165.055 18.5412C165.357 18.8437 165.743 19.0087 166.21 19.0087C166.65 19.0087 167.063 18.8162 167.365 18.5412C167.668 18.2387 167.833 17.8537 167.833 17.3862C167.833 16.9187 167.668 16.5062 167.365 16.2312Z" fill="#4F8ECC" fill-opacity="0.5"/>
<path fill-rule="evenodd" clip-rule="evenodd" d="M154 50.1387C154.935 50.1387 155.705 50.9087 155.705 51.8437C155.705 52.7787 154.935 53.5487 154 53.5487C153.065 53.5487 152.295 52.7787 152.295 51.8437C152.322 50.8812 153.065 50.1387 154 50.1387Z" fill="#C3DFFA" fill-opacity="0.5"/>
<path fill-rule="evenodd" clip-rule="evenodd" d="M155.402 52.8612C155.1 53.2737 154.605 53.5487 154.055 53.5487C153.12 53.5487 152.35 52.7787 152.35 51.8437C152.35 51.2662 152.652 50.7437 153.092 50.4412C152.872 50.7162 152.762 51.0737 152.762 51.4587C152.762 52.3937 153.532 53.1637 154.467 53.1637C154.797 53.1362 155.127 53.0537 155.402 52.8612Z" fill="white" fill-opacity="0.96"/>
<path fill-rule="evenodd" clip-rule="evenodd" d="M154 50.0562C154.495 50.0562 154.935 50.2487 155.237 50.5787C155.567 50.9087 155.76 51.3487 155.76 51.8162C155.76 52.3112 155.567 52.7512 155.237 53.0537C154.907 53.3837 154.467 53.5762 154 53.5762C153.505 53.5762 153.065 53.3837 152.762 53.0537C152.432 52.7237 152.24 52.2837 152.24 51.8162C152.24 51.3212 152.432 50.8812 152.762 50.5787C153.092 50.2487 153.532 50.0562 154 50.0562ZM155.155 50.6887C154.853 50.3862 154.467 50.2212 154 50.2212C153.532 50.2212 153.147 50.4137 152.845 50.6887C152.542 50.9912 152.377 51.3762 152.377 51.8437C152.377 52.3112 152.57 52.6962 152.845 52.9987C153.147 53.3012 153.532 53.4662 154 53.4662C154.467 53.4662 154.853 53.2737 155.155 52.9987C155.458 52.6962 155.623 52.3112 155.623 51.8437C155.623 51.3762 155.458 50.9637 155.155 50.6887Z" fill="#4F8ECC" fill-opacity="0.5"/>
<path fill-rule="evenodd" clip-rule="evenodd" d="M159.83 49.0937C160.765 49.0937 161.535 49.8637 161.535 50.7987C161.535 51.7337 160.765 52.5037 159.83 52.5037C158.895 52.5037 158.125 51.7337 158.125 50.7987C158.153 49.8362 158.895 49.0937 159.83 49.0937Z" fill="#C3DFFA" fill-opacity="0.5"/>
<path fill-rule="evenodd" clip-rule="evenodd" d="M161.233 51.8162C160.93 52.2287 160.435 52.5037 159.885 52.5037C158.95 52.5037 158.18 51.7337 158.18 50.7987C158.18 50.2212 158.483 49.6987 158.923 49.3962C158.703 49.6712 158.592 50.0287 158.592 50.4137C158.592 51.3487 159.363 52.1187 160.298 52.1187C160.628 52.0912 160.958 52.0087 161.233 51.8162Z" fill="white" fill-opacity="0.96"/>
<path fill-rule="evenodd" clip-rule="evenodd" d="M159.83 49.0112C160.325 49.0112 160.765 49.2037 161.067 49.5337C161.397 49.8637 161.59 50.3037 161.59 50.7712C161.59 51.2662 161.397 51.7062 161.067 52.0087C160.737 52.3387 160.297 52.5312 159.83 52.5312C159.335 52.5312 158.895 52.3387 158.592 52.0087C158.262 51.6787 158.07 51.2387 158.07 50.7712C158.07 50.2762 158.262 49.8362 158.592 49.5337C158.922 49.2037 159.362 49.0112 159.83 49.0112ZM160.985 49.6437C160.683 49.3412 160.297 49.1762 159.83 49.1762C159.39 49.1762 158.977 49.3687 158.675 49.6437C158.372 49.9462 158.208 50.3312 158.208 50.7987C158.208 51.2662 158.4 51.6512 158.675 51.9537C158.977 52.2562 159.362 52.4212 159.83 52.4212C160.27 52.4212 160.683 52.2287 160.985 51.9537C161.288 51.6512 161.452 51.2662 161.452 50.7987C161.452 50.3312 161.288 49.9187 160.985 49.6437Z" fill="#4F8ECC" fill-opacity="0.5"/>
<path fill-rule="evenodd" clip-rule="evenodd" d="M166.21 50.1387C167.145 50.1387 167.915 50.9087 167.915 51.8437C167.915 52.7787 167.145 53.5487 166.21 53.5487C165.275 53.5487 164.505 52.7787 164.505 51.8437C164.533 50.8812 165.275 50.1387 166.21 50.1387Z" fill="#C3DFFA" fill-opacity="0.5"/>
<path fill-rule="evenodd" clip-rule="evenodd" d="M167.612 52.8612C167.31 53.2737 166.815 53.5487 166.265 53.5487C165.33 53.5487 164.56 52.7787 164.56 51.8437C164.56 51.2662 164.862 50.7437 165.302 50.4412C165.082 50.7162 164.972 51.0737 164.972 51.4587C164.972 52.3937 165.742 53.1637 166.677 53.1637C167.007 53.1362 167.337 53.0537 167.612 52.8612Z" fill="white" fill-opacity="0.96"/>
<path fill-rule="evenodd" clip-rule="evenodd" d="M166.21 50.0562C166.705 50.0562 167.145 50.2487 167.448 50.5787C167.778 50.9087 167.97 51.3487 167.97 51.8162C167.97 52.3112 167.778 52.7512 167.448 53.0537C167.118 53.3837 166.678 53.5762 166.21 53.5762C165.715 53.5762 165.275 53.3837 164.973 53.0537C164.643 52.7237 164.45 52.2837 164.45 51.8162C164.45 51.3212 164.643 50.8812 164.973 50.5787C165.303 50.2487 165.743 50.0562 166.21 50.0562ZM167.365 50.6887C167.063 50.3862 166.678 50.2212 166.21 50.2212C165.77 50.2212 165.357 50.4137 165.055 50.6887C164.752 50.9912 164.588 51.3762 164.588 51.8437C164.588 52.3112 164.78 52.6962 165.055 52.9987C165.357 53.3012 165.743 53.4662 166.21 53.4662C166.65 53.4662 167.063 53.2737 167.365 52.9987C167.668 52.6962 167.833 52.3112 167.833 51.8437C167.833 51.3762 167.668 50.9637 167.365 50.6887Z" fill="#4F8ECC" fill-opacity="0.5"/>
<path fill-rule="evenodd" clip-rule="evenodd" d="M178.998 27.1487C179.933 27.1487 180.702 27.9187 180.702 28.8537C180.702 29.7887 179.933 30.5587 178.998 30.5587C178.063 30.5587 177.292 29.7887 177.292 28.8537C177.292 27.9187 178.063 27.1487 178.998 27.1487Z" fill="#C3DFFA" fill-opacity="0.5"/>
<path fill-rule="evenodd" clip-rule="evenodd" d="M180.373 29.8712C180.07 30.2837 179.575 30.5587 179.025 30.5587C178.09 30.5587 177.32 29.7887 177.32 28.8537C177.32 28.2762 177.622 27.7537 178.062 27.4512C177.842 27.7262 177.733 28.0837 177.733 28.4687C177.733 29.4037 178.502 30.1737 179.437 30.1737C179.795 30.1737 180.125 30.0637 180.373 29.8712Z" fill="white" fill-opacity="0.96"/>
<path fill-rule="evenodd" clip-rule="evenodd" d="M178.997 27.0662C179.492 27.0662 179.932 27.2587 180.235 27.5887C180.565 27.9187 180.758 28.3587 180.758 28.8262C180.758 29.3212 180.565 29.7612 180.235 30.0637C179.905 30.3937 179.465 30.5862 178.997 30.5862C178.53 30.5862 178.062 30.3937 177.76 30.0637C177.43 29.7337 177.237 29.2937 177.237 28.8262C177.237 28.3312 177.43 27.8912 177.76 27.5887C178.062 27.2862 178.502 27.0662 178.997 27.0662ZM180.152 27.6987C179.85 27.3962 179.465 27.2312 178.997 27.2312C178.557 27.2312 178.145 27.4237 177.842 27.6987C177.54 28.0012 177.375 28.3862 177.375 28.8537C177.375 29.2937 177.567 29.7062 177.842 30.0087C178.145 30.3112 178.53 30.4762 178.997 30.4762C179.437 30.4762 179.85 30.2837 180.152 30.0087C180.455 29.7062 180.62 29.3212 180.62 28.8537C180.62 28.4137 180.427 28.0012 180.152 27.6987Z" fill="#4F8ECC" fill-opacity="0.5"/>
<path fill-rule="evenodd" clip-rule="evenodd" d="M179.602 33.6112C180.537 33.6112 181.307 34.3812 181.307 35.3162C181.307 36.2512 180.537 37.0212 179.602 37.0212C178.667 37.0212 177.897 36.2512 177.897 35.3162C177.925 34.3537 178.667 33.6112 179.602 33.6112Z" fill="#C3DFFA" fill-opacity="0.5"/>
<path fill-rule="evenodd" clip-rule="evenodd" d="M181.005 36.3337C180.703 36.7462 180.208 37.0212 179.658 37.0212C178.723 37.0212 177.953 36.2512 177.953 35.3162C177.953 34.7387 178.255 34.2162 178.695 33.9137C178.475 34.1887 178.365 34.5462 178.365 34.9312C178.365 35.8662 179.135 36.6362 180.07 36.6362C180.4 36.6087 180.73 36.4987 181.005 36.3337Z" fill="white" fill-opacity="0.96"/>
<path fill-rule="evenodd" clip-rule="evenodd" d="M179.602 33.5287C180.097 33.5287 180.537 33.7212 180.84 34.0512C181.17 34.3812 181.362 34.8212 181.362 35.2887C181.362 35.7837 181.17 36.2237 180.84 36.5262C180.51 36.8562 180.07 37.0487 179.602 37.0487C179.107 37.0487 178.667 36.8562 178.365 36.5262C178.035 36.1962 177.842 35.7562 177.842 35.2887C177.842 34.7937 178.035 34.3537 178.365 34.0512C178.695 33.7212 179.135 33.5287 179.602 33.5287ZM180.757 34.1612C180.455 33.8587 180.07 33.6937 179.602 33.6937C179.162 33.6937 178.75 33.8862 178.447 34.1612C178.145 34.4637 177.98 34.8487 177.98 35.3162C177.98 35.7562 178.172 36.1687 178.447 36.4712C178.75 36.7737 179.135 36.9387 179.602 36.9387C180.042 36.9387 180.455 36.7462 180.757 36.4712C181.06 36.1687 181.225 35.7837 181.225 35.3162C181.225 34.8487 181.06 34.4362 180.757 34.1612Z" fill="#4F8ECC" fill-opacity="0.5"/>
<path fill-rule="evenodd" clip-rule="evenodd" d="M177.733 37.2412C178.668 37.2412 179.438 38.0112 179.438 38.9462C179.438 39.8812 178.668 40.6512 177.733 40.6512C176.798 40.6512 176.028 39.8812 176.028 38.9462C176.055 38.0112 176.798 37.2412 177.733 37.2412Z" fill="#C3DFFA" fill-opacity="0.5"/>
<path fill-rule="evenodd" clip-rule="evenodd" d="M179.135 39.9637C178.833 40.3762 178.338 40.6512 177.788 40.6512C176.853 40.6512 176.083 39.8812 176.083 38.9462C176.083 38.3687 176.385 37.8462 176.825 37.5437C176.605 37.8187 176.495 38.1762 176.495 38.5612C176.495 39.4962 177.265 40.2662 178.2 40.2662C178.53 40.2662 178.86 40.1562 179.135 39.9637Z" fill="white" fill-opacity="0.96"/>
<path fill-rule="evenodd" clip-rule="evenodd" d="M177.733 37.1862C178.228 37.1862 178.668 37.3787 178.97 37.7087C179.3 38.0387 179.493 38.4787 179.493 38.9462C179.493 39.4412 179.3 39.8812 178.97 40.1837C178.64 40.5137 178.2 40.7062 177.733 40.7062C177.265 40.7062 176.798 40.5137 176.495 40.1837C176.165 39.8537 175.973 39.4137 175.973 38.9462C175.973 38.4512 176.165 38.0112 176.495 37.7087C176.825 37.3787 177.265 37.1862 177.733 37.1862ZM178.888 37.7912C178.585 37.4887 178.2 37.3237 177.733 37.3237C177.293 37.3237 176.88 37.5162 176.578 37.7912C176.275 38.0937 176.11 38.4787 176.11 38.9462C176.11 39.3862 176.303 39.7987 176.578 40.1012C176.88 40.4037 177.265 40.5687 177.733 40.5687C178.173 40.5687 178.585 40.3762 178.888 40.1012C179.19 39.7987 179.355 39.4137 179.355 38.9462C179.355 38.5062 179.19 38.0937 178.888 37.7912Z" fill="#4F8ECC" fill-opacity="0.5"/>
<path fill-rule="evenodd" clip-rule="evenodd" d="M41.2225 192.204C40.205 193.221 37.95 192.699 35.1175 191.021C34.5125 190.664 33.88 190.279 33.22 189.811C33.0825 190.581 32.9175 191.324 32.725 191.984C31.8725 195.174 30.6625 197.154 29.2325 197.154C27.8025 197.154 26.565 195.174 25.74 191.984C25.575 191.296 25.41 190.581 25.245 189.811C24.585 190.251 23.9525 190.664 23.3475 191.021C20.4875 192.671 18.2325 193.194 17.2425 192.204C16.225 191.186 16.7475 188.931 18.425 186.099C18.7825 185.494 19.1675 184.861 19.635 184.201C18.865 184.064 18.1225 183.899 17.435 183.706C14.245 182.854 12.265 181.644 12.265 180.214C12.265 178.784 14.245 177.574 17.435 176.721C18.1225 176.556 18.8375 176.391 19.635 176.226C19.195 175.566 18.7825 174.934 18.425 174.329C16.775 171.469 16.2525 169.214 17.2425 168.224C18.26 167.206 20.515 167.729 23.3475 169.406C23.9525 169.764 24.585 170.149 25.245 170.616C25.3825 169.846 25.5475 169.104 25.74 168.416C26.5925 165.226 27.8025 163.246 29.2325 163.246C30.6625 163.246 31.9 165.226 32.725 168.416C32.89 169.104 33.055 169.819 33.22 170.589C33.88 170.149 34.5125 169.736 35.1175 169.379C37.9775 167.729 40.2325 167.206 41.2225 168.196C42.24 169.214 41.7175 171.469 40.04 174.301C39.6825 174.906 39.2975 175.539 38.83 176.199C39.6 176.336 40.3425 176.501 41.03 176.694C44.22 177.546 46.2 178.756 46.2 180.186C46.2 181.616 44.22 182.826 41.03 183.679C40.3425 183.844 39.6275 184.009 38.83 184.174C39.27 184.834 39.6825 185.466 40.04 186.071C41.7175 188.931 42.24 191.214 41.2225 192.204ZM31.8175 177.629C31.1575 176.969 30.25 176.556 29.2325 176.556C28.215 176.556 27.3075 176.969 26.6475 177.629C25.9875 178.289 25.575 179.196 25.575 180.214C25.575 181.231 25.9875 182.139 26.6475 182.799C27.3075 183.459 28.215 183.871 29.2325 183.871C30.25 183.871 31.1575 183.459 31.8175 182.799C32.4775 182.139 32.89 181.231 32.89 180.214C32.89 179.224 32.4775 178.289 31.8175 177.629ZM32.45 189.289C31.405 188.546 30.3325 187.694 29.2325 186.759C28.1325 187.694 27.06 188.546 26.015 189.289C26.18 190.196 26.345 191.021 26.565 191.791C27.3075 194.596 28.2425 196.301 29.2325 196.301C30.2225 196.301 31.1575 194.569 31.9 191.791C32.12 191.049 32.285 190.196 32.45 189.289ZM26.015 171.166C27.06 171.909 28.1325 172.761 29.2325 173.696C30.3325 172.761 31.405 171.909 32.45 171.166C32.285 170.259 32.12 169.434 31.9 168.664C31.1575 165.859 30.2225 164.154 29.2325 164.154C28.2425 164.154 27.3075 165.886 26.565 168.664C26.3725 169.406 26.18 170.259 26.015 171.166ZM33.385 171.551C33.5775 172.816 33.7425 174.164 33.8525 175.621C35.31 175.731 36.6575 175.896 37.9225 176.089C38.445 175.346 38.9125 174.604 39.325 173.944C40.7825 171.441 41.3325 169.544 40.645 168.856C39.9575 168.169 38.06 168.719 35.5575 170.176C34.8425 170.534 34.1275 171.001 33.385 171.551ZM33.9075 176.474C33.935 177.051 33.9625 177.656 33.99 178.261C34.4025 178.701 34.815 179.141 35.2 179.581C35.9975 178.646 36.7125 177.739 37.3725 176.859C36.2725 176.694 35.1175 176.556 33.9075 176.474ZM34.0175 179.554C34.0175 179.774 34.0175 179.994 34.0175 180.241C34.0175 180.461 34.0175 180.709 34.0175 180.929C34.2375 180.709 34.43 180.461 34.6225 180.241C34.43 179.994 34.2375 179.774 34.0175 179.554ZM33.99 182.194C33.9625 182.799 33.935 183.404 33.9075 183.981C35.1175 183.899 36.2725 183.761 37.345 183.596C36.685 182.716 35.97 181.809 35.1725 180.874C34.815 181.314 34.4025 181.754 33.99 182.194ZM33.8525 184.834C33.7425 186.291 33.5775 187.639 33.385 188.904C34.1275 189.426 34.87 189.894 35.53 190.306C38.0325 191.764 39.93 192.314 40.6175 191.626C41.305 190.939 40.755 189.041 39.2975 186.539C38.9125 185.851 38.445 185.136 37.895 184.394C36.6575 184.559 35.31 184.724 33.8525 184.834ZM25.1075 188.904C24.915 187.639 24.75 186.291 24.64 184.834C23.1825 184.724 21.835 184.559 20.57 184.366C20.0475 185.109 19.58 185.851 19.1675 186.511C17.71 189.014 17.16 190.911 17.8475 191.599C18.535 192.286 20.4325 191.736 22.935 190.279C23.6225 189.894 24.3375 189.426 25.1075 188.904ZM24.5575 183.981C24.53 183.404 24.5025 182.799 24.475 182.194C24.0625 181.754 23.65 181.314 23.265 180.874C22.4675 181.809 21.7525 182.716 21.0925 183.596C22.1925 183.761 23.3475 183.871 24.5575 183.981ZM24.4475 180.901C24.4475 180.681 24.4475 180.461 24.4475 180.214C24.4475 179.994 24.4475 179.746 24.4475 179.526C24.2275 179.746 24.035 179.994 23.8425 180.214C24.035 180.461 24.255 180.681 24.4475 180.901ZM24.475 178.261C24.5025 177.656 24.53 177.051 24.5575 176.474C23.3475 176.556 22.1925 176.694 21.12 176.859C21.78 177.739 22.495 178.646 23.2925 179.581C23.6775 179.141 24.0625 178.701 24.475 178.261ZM24.6125 175.621C24.7225 174.164 24.8875 172.816 25.08 171.551C24.3375 171.029 23.595 170.561 22.935 170.149C20.4325 168.691 18.535 168.141 17.8475 168.829C17.16 169.516 17.71 171.414 19.1675 173.916C19.5525 174.604 20.02 175.319 20.57 176.089C21.8075 175.869 23.1825 175.731 24.6125 175.621ZM25.8775 172.101C25.7125 173.174 25.575 174.329 25.4925 175.539C26.07 175.511 26.675 175.484 27.28 175.456C27.72 175.044 28.16 174.631 28.6 174.246C27.665 173.476 26.7575 172.734 25.8775 172.101ZM25.4375 176.419C25.41 176.721 25.41 177.024 25.3825 177.326C25.5475 177.161 25.7125 176.996 25.85 176.831C26.015 176.666 26.18 176.501 26.345 176.364C26.0425 176.364 25.74 176.391 25.4375 176.419ZM25.3825 183.129C25.41 183.431 25.41 183.734 25.4375 184.036C25.74 184.064 26.0425 184.064 26.345 184.091C26.18 183.926 26.015 183.761 25.85 183.624C25.685 183.431 25.52 183.294 25.3825 183.129ZM25.4925 184.889C25.575 186.099 25.7125 187.254 25.8775 188.354C26.7575 187.694 27.665 186.979 28.6 186.181C28.16 185.796 27.72 185.384 27.28 184.971C26.675 184.971 26.07 184.944 25.4925 184.889ZM32.615 188.354C32.78 187.281 32.9175 186.126 33 184.889C32.4225 184.916 31.8175 184.944 31.2125 184.971C30.7725 185.384 30.3325 185.796 29.8925 186.181C30.8275 186.979 31.735 187.694 32.615 188.354ZM33.055 184.036C33.0825 183.734 33.0825 183.431 33.11 183.129C32.945 183.294 32.78 183.459 32.6425 183.624C32.4775 183.789 32.3125 183.954 32.1475 184.091C32.45 184.064 32.7525 184.064 33.055 184.036ZM33.11 177.326C33.0825 177.024 33.0825 176.721 33.055 176.419C32.7525 176.391 32.45 176.391 32.1475 176.364C32.3125 176.529 32.4775 176.694 32.6425 176.831C32.78 176.996 32.945 177.161 33.11 177.326ZM33 175.539C32.9175 174.329 32.78 173.174 32.615 172.101C31.735 172.761 30.8275 173.476 29.8925 174.274C30.3325 174.659 30.7725 175.071 31.2125 175.484C31.8175 175.484 32.4225 175.511 33 175.539ZM38.3075 177.024C37.565 178.069 36.7125 179.141 35.7775 180.241C36.7125 181.341 37.565 182.414 38.3075 183.459C39.215 183.294 40.04 183.129 40.81 182.909C43.615 182.166 45.32 181.231 45.32 180.241C45.32 179.251 43.5875 178.316 40.81 177.574C40.04 177.354 39.215 177.161 38.3075 177.024ZM20.1575 183.431C20.9 182.386 21.7525 181.314 22.6875 180.214C21.7525 179.114 20.9 178.041 20.1575 176.996C19.25 177.161 18.425 177.326 17.655 177.546C14.85 178.289 13.145 179.224 13.145 180.214C13.145 181.204 14.8775 182.139 17.655 182.881C18.425 183.101 19.2775 183.266 20.1575 183.431ZM29.2325 174.824C29.0125 175.016 28.765 175.236 28.545 175.429C28.765 175.429 28.985 175.429 29.2325 175.429C29.4525 175.429 29.6725 175.429 29.92 175.429C29.7 175.236 29.4525 175.016 29.2325 174.824ZM29.2325 185.604C29.4525 185.411 29.7 185.191 29.92 184.999C29.7 184.999 29.48 184.999 29.2325 184.999C29.0125 184.999 28.7925 184.999 28.545 184.999C28.7925 185.219 29.0125 185.411 29.2325 185.604Z" fill="#0086F4" fill-opacity="0.5"/>
<path fill-rule="evenodd" clip-rule="evenodd" d="M41.58 191.846C40.5625 192.864 38.3075 192.341 35.475 190.664C34.87 190.306 34.2375 189.921 33.5775 189.454C33.44 190.224 33.275 190.966 33.0825 191.654C32.23 194.844 31.02 196.824 29.59 196.824C28.16 196.824 26.9225 194.844 26.0975 191.654C25.9325 190.966 25.7675 190.251 25.6025 189.481C24.9425 189.921 24.31 190.334 23.705 190.691C20.845 192.341 18.59 192.864 17.6 191.874C16.5825 190.856 17.105 188.601 18.7825 185.769C19.14 185.164 19.525 184.531 19.9925 183.871C19.2225 183.734 18.48 183.569 17.7925 183.376C14.6025 182.524 12.6225 181.314 12.6225 179.884C12.6225 178.454 14.6025 177.244 17.7925 176.391C18.48 176.226 19.195 176.061 19.9925 175.896C19.5525 175.236 19.14 174.604 18.7825 173.999C17.1325 171.139 16.61 168.884 17.6 167.894C18.6175 166.876 20.8725 167.399 23.705 169.076C24.31 169.434 24.9425 169.819 25.6025 170.286C25.74 169.516 25.905 168.774 26.0975 168.114C26.95 164.924 28.16 162.944 29.59 162.944C31.02 162.944 32.2575 164.924 33.0825 168.114C33.2475 168.801 33.4125 169.516 33.5775 170.286C34.2375 169.846 34.87 169.434 35.475 169.076C38.335 167.426 40.59 166.904 41.58 167.894C42.5975 168.911 42.075 171.166 40.3975 173.999C40.04 174.604 39.655 175.236 39.1875 175.896C39.9575 176.034 40.7 176.199 41.3875 176.391C44.5775 177.244 46.5575 178.454 46.5575 179.884C46.5575 181.314 44.5775 182.551 41.3875 183.376C40.7 183.541 39.985 183.706 39.1875 183.871C39.6275 184.531 40.04 185.164 40.3975 185.769C42.075 188.574 42.5975 190.829 41.58 191.846ZM32.175 177.271C31.515 176.611 30.6075 176.199 29.59 176.199C28.5725 176.199 27.665 176.611 27.005 177.271C26.345 177.931 25.9325 178.839 25.9325 179.856C25.9325 180.874 26.345 181.781 27.005 182.441C27.665 183.101 28.5725 183.514 29.59 183.514C30.6075 183.514 31.515 183.101 32.175 182.441C32.835 181.781 33.2475 180.874 33.2475 179.856C33.2475 178.839 32.835 177.931 32.175 177.271ZM32.8075 188.904C31.7625 188.161 30.69 187.309 29.59 186.374C28.49 187.309 27.4175 188.161 26.3725 188.904C26.5375 189.811 26.7025 190.636 26.9225 191.406C27.665 194.211 28.6 195.916 29.59 195.916C30.58 195.916 31.515 194.184 32.2575 191.406C32.45 190.664 32.6425 189.811 32.8075 188.904ZM26.3725 170.781C27.4175 171.524 28.49 172.376 29.59 173.311C30.69 172.376 31.7625 171.524 32.8075 170.781C32.6425 169.874 32.4775 169.049 32.2575 168.279C31.515 165.474 30.58 163.769 29.59 163.769C28.6 163.769 27.665 165.501 26.9225 168.279C26.73 169.021 26.5375 169.874 26.3725 170.781ZM33.7425 171.166C33.935 172.431 34.1 173.779 34.21 175.236C35.6675 175.346 37.015 175.511 38.28 175.704C38.8025 174.961 39.27 174.219 39.6825 173.559C41.14 171.056 41.69 169.159 41.0025 168.471C40.315 167.784 38.4175 168.334 35.915 169.791C35.2 170.176 34.485 170.644 33.7425 171.166ZM34.265 176.089C34.2925 176.666 34.32 177.271 34.3475 177.876C34.76 178.316 35.1725 178.756 35.5575 179.196C36.355 178.261 37.07 177.354 37.73 176.474C36.63 176.309 35.475 176.199 34.265 176.089ZM34.375 179.169C34.375 179.389 34.375 179.609 34.375 179.856C34.375 180.076 34.375 180.324 34.375 180.544C34.595 180.324 34.7875 180.076 34.98 179.856C34.7875 179.609 34.5675 179.389 34.375 179.169ZM34.3475 181.809C34.32 182.414 34.2925 183.019 34.265 183.596C35.475 183.514 36.63 183.376 37.7025 183.211C37.0425 182.331 36.3275 181.424 35.53 180.489C35.1725 180.929 34.76 181.369 34.3475 181.809ZM34.21 184.449C34.1 185.906 33.935 187.254 33.7425 188.519C34.485 189.041 35.2275 189.509 35.8875 189.921C38.39 191.379 40.2875 191.929 40.975 191.241C41.6625 190.554 41.1125 188.656 39.655 186.154C39.27 185.466 38.8025 184.751 38.2525 183.981C37.015 184.201 35.64 184.339 34.21 184.449ZM25.4375 188.519C25.245 187.254 25.08 185.906 24.97 184.449C23.5125 184.339 22.165 184.174 20.9 183.981C20.3775 184.724 19.91 185.466 19.4975 186.126C18.04 188.629 17.49 190.526 18.1775 191.214C18.865 191.901 20.7625 191.351 23.265 189.894C23.98 189.536 24.695 189.069 25.4375 188.519ZM24.915 183.596C24.8875 183.019 24.86 182.414 24.8325 181.809C24.42 181.369 24.0075 180.929 23.6225 180.489C22.825 181.424 22.11 182.331 21.45 183.211C22.55 183.376 23.705 183.514 24.915 183.596ZM24.805 180.516C24.805 180.296 24.805 180.076 24.805 179.829C24.805 179.609 24.805 179.361 24.805 179.141C24.585 179.361 24.3925 179.609 24.2 179.829C24.3925 180.076 24.6125 180.296 24.805 180.516ZM24.8325 177.876C24.86 177.271 24.8875 176.666 24.915 176.089C23.705 176.171 22.55 176.309 21.4775 176.474C22.1375 177.354 22.8525 178.261 23.65 179.196C24.0075 178.756 24.42 178.316 24.8325 177.876ZM24.97 175.236C25.08 173.779 25.245 172.431 25.4375 171.166C24.695 170.644 23.9525 170.176 23.2925 169.764C20.79 168.306 18.8925 167.756 18.205 168.444C17.5175 169.131 18.0675 171.029 19.525 173.531C19.91 174.219 20.3775 174.934 20.9275 175.676C22.165 175.511 23.54 175.346 24.97 175.236ZM26.235 171.716C26.07 172.789 25.9325 173.944 25.85 175.154C26.4275 175.126 27.0325 175.099 27.6375 175.071C28.0775 174.659 28.5175 174.246 28.9575 173.861C28.0225 173.091 27.115 172.376 26.235 171.716ZM25.7675 176.034C25.74 176.336 25.74 176.639 25.7125 176.941C25.8775 176.776 26.0425 176.611 26.18 176.446C26.345 176.281 26.51 176.116 26.675 175.979C26.3725 176.006 26.07 176.006 25.7675 176.034ZM25.7125 182.744C25.74 183.046 25.74 183.349 25.7675 183.651C26.07 183.679 26.3725 183.679 26.675 183.706C26.51 183.541 26.345 183.376 26.18 183.239C26.0425 183.074 25.8775 182.909 25.7125 182.744ZM25.8225 184.531C25.905 185.741 26.0425 186.896 26.2075 187.969C27.0875 187.309 27.995 186.594 28.93 185.796C28.49 185.411 28.05 184.999 27.61 184.586C27.005 184.586 26.4275 184.559 25.8225 184.531ZM32.945 187.969C33.11 186.896 33.2475 185.741 33.33 184.531C32.7525 184.559 32.1475 184.586 31.5425 184.614C31.1025 185.026 30.6625 185.439 30.2225 185.824C31.1575 186.594 32.065 187.336 32.945 187.969ZM33.4125 183.651C33.44 183.349 33.44 183.046 33.4675 182.744C33.3025 182.909 33.165 183.074 33 183.239C32.835 183.404 32.67 183.569 32.505 183.706C32.8075 183.706 33.11 183.679 33.4125 183.651ZM33.44 176.941C33.4125 176.639 33.4125 176.336 33.385 176.034C33.0825 176.006 32.78 176.006 32.4775 175.979C32.6425 176.144 32.8075 176.309 32.9725 176.446C33.1375 176.639 33.3025 176.776 33.44 176.941ZM33.33 175.181C33.2475 173.971 33.11 172.816 32.945 171.744C32.065 172.404 31.1575 173.119 30.2225 173.916C30.6625 174.301 31.1025 174.714 31.5425 175.126C32.175 175.099 32.7525 175.126 33.33 175.181ZM38.665 176.639C37.9225 177.684 37.07 178.756 36.135 179.856C37.07 180.956 37.9225 182.029 38.665 183.074C39.5725 182.909 40.3975 182.744 41.1675 182.524C43.9725 181.781 45.6775 180.846 45.6775 179.856C45.6775 178.866 43.945 177.931 41.1675 177.189C40.3975 176.969 39.5725 176.804 38.665 176.639ZM20.515 183.046C21.2575 182.001 22.11 180.929 23.045 179.829C22.11 178.729 21.2575 177.656 20.515 176.611C19.6075 176.776 18.7825 176.941 18.0125 177.161C15.2075 177.904 13.5025 178.839 13.5025 179.829C13.5025 180.819 15.235 181.754 18.0125 182.496C18.7825 182.716 19.6075 182.909 20.515 183.046ZM29.59 174.466C29.37 174.659 29.1225 174.879 28.9025 175.071C29.1225 175.071 29.3425 175.071 29.59 175.071C29.81 175.071 30.03 175.071 30.2775 175.071C30.0575 174.851 29.81 174.659 29.59 174.466ZM29.59 185.246C29.81 185.054 30.0575 184.834 30.2775 184.641C30.0575 184.641 29.8375 184.641 29.59 184.641C29.37 184.641 29.15 184.641 28.9025 184.641C29.1225 184.834 29.37 185.054 29.59 185.246Z" fill="white" fill-opacity="0.96"/>
<path fill-rule="evenodd" clip-rule="evenodd" d="M25.3825 89.6012L23.2925 90.8112C22.5775 91.2237 22.3575 92.1312 22.77 92.8462L23.2375 93.6437C23.7875 94.5787 23.54 94.9912 23.375 95.1562C22.9075 95.5687 22.4675 96.0362 22.055 96.4762C21.9175 96.6137 21.5325 97.0537 20.46 96.4487L19.745 96.0362C19.03 95.6237 18.1225 95.8712 17.71 96.5587L16.5 98.6487C16.0875 99.3637 16.335 100.271 17.0225 100.684L17.7375 101.096C18.7275 101.674 18.7 101.976 18.59 102.389C18.425 102.966 18.2325 103.544 18.095 104.149C17.985 104.671 18.04 105.056 16.6925 105.056H15.8675C15.0425 105.056 14.3825 105.716 14.3825 106.541V108.961C14.3825 109.786 15.0425 110.446 15.8675 110.446H16.6925C18.04 110.446 17.985 110.831 18.095 111.354C18.2325 111.959 18.3975 112.536 18.59 113.114C18.7275 113.526 18.755 113.829 17.7375 114.406L17.0225 114.819C16.3075 115.231 16.0875 116.139 16.5 116.854L17.71 118.944C18.1225 119.659 19.03 119.879 19.745 119.466L20.46 119.054C21.5325 118.449 21.9175 118.889 22.055 119.026C22.495 119.466 22.9075 119.934 23.375 120.346C23.54 120.484 23.7875 120.924 23.2375 121.859L22.77 122.656C22.3575 123.371 22.605 124.279 23.2925 124.691L25.3825 125.901C26.0975 126.314 27.005 126.066 27.4175 125.379L27.885 124.581C28.435 123.646 28.985 123.674 29.205 123.756C29.865 123.976 30.4975 124.114 31.185 124.279C31.4325 124.334 31.8725 124.526 31.8725 125.654V126.506C31.8725 127.331 32.5325 127.991 33.3575 127.991H35.7775C36.6025 127.991 37.2625 127.331 37.2625 126.506V125.654C37.2625 124.526 37.7025 124.334 37.95 124.279C38.6375 124.086 39.2425 123.976 39.93 123.756C40.15 123.674 40.7 123.646 41.25 124.581L41.7175 125.379C42.13 126.094 43.0375 126.314 43.7525 125.901L45.8425 124.691C46.5575 124.279 46.7775 123.371 46.365 122.656L45.8975 121.859C45.3475 120.924 45.595 120.511 45.76 120.346C46.2275 119.934 46.6675 119.466 47.08 119.026C47.2175 118.889 47.6025 118.449 48.675 119.054L49.39 119.466C50.105 119.879 51.0125 119.631 51.425 118.944L52.635 116.854C53.0475 116.139 52.8 115.231 52.1125 114.819L51.3975 114.406C50.4075 113.829 50.435 113.526 50.545 113.114C50.71 112.536 50.9025 111.959 51.04 111.354C51.15 110.831 51.095 110.446 52.4425 110.446H53.2675C54.0925 110.446 54.7525 109.786 54.7525 108.961V106.514C54.7525 105.689 54.0925 105.029 53.2675 105.029H52.4425C51.095 105.029 51.15 104.644 51.04 104.121C50.9025 103.516 50.7375 102.939 50.545 102.361C50.4075 101.949 50.38 101.646 51.3975 101.069L52.1125 100.656C52.8275 100.244 53.0475 99.3362 52.635 98.6212L51.425 96.5312C51.0125 95.8162 50.105 95.5962 49.39 96.0087L48.675 96.4212C47.6025 97.0262 47.2175 96.5862 47.08 96.4487C46.64 96.0087 46.2275 95.5412 45.76 95.1287C45.595 94.9912 45.3475 94.5512 45.8975 93.6162L46.365 92.8187C46.7775 92.1037 46.53 91.1962 45.8425 90.7837L43.7525 89.5737C43.0375 89.1612 42.13 89.4087 41.7175 90.0962L41.25 90.8937C40.7 91.8287 40.15 91.8012 39.93 91.7187C39.27 91.4987 38.6375 91.3612 37.95 91.1962C37.7025 91.1412 37.2625 90.9487 37.2625 89.8212V88.9687C37.2625 88.1437 36.6025 87.4837 35.7775 87.4837H33.3575C32.5325 87.4837 31.8725 88.1437 31.8725 88.9687V89.8212C31.8725 90.9487 31.4325 91.1412 31.185 91.1962C30.4975 91.3612 29.8925 91.4987 29.205 91.7187C28.985 91.8012 28.435 91.8287 27.885 90.8937L27.4175 90.0962C26.9775 89.4362 26.07 89.1887 25.3825 89.6012ZM34.5125 95.8712C41.0575 95.8712 46.3375 101.179 46.3375 107.696C46.3375 114.214 41.03 119.521 34.5125 119.521C27.995 119.521 22.6875 114.214 22.6875 107.696C22.6875 101.179 27.9675 95.8712 34.5125 95.8712Z" fill="#0086F4" fill-opacity="0.5"/>
<path fill-rule="evenodd" clip-rule="evenodd" d="M26.1525 89.6012L24.0625 90.8112C23.3475 91.2237 23.1275 92.1312 23.54 92.8462L24.0075 93.6437C24.5575 94.5787 24.31 94.9912 24.145 95.1562C23.6775 95.5687 23.2375 96.0362 22.825 96.4762C22.6875 96.6137 22.3025 97.0537 21.23 96.4487L20.515 96.0362C19.8 95.6237 18.8925 95.8712 18.48 96.5587L17.27 98.6487C16.8575 99.3637 17.105 100.271 17.7925 100.684L18.5075 101.096C19.4975 101.674 19.47 101.976 19.36 102.389C19.195 102.966 19.0025 103.544 18.865 104.149C18.755 104.671 18.81 105.056 17.4625 105.056H16.6375C15.8125 105.056 15.1525 105.716 15.1525 106.541V108.961C15.1525 109.786 15.8125 110.446 16.6375 110.446H17.4625C18.81 110.446 18.755 110.831 18.865 111.354C19.0025 111.959 19.1675 112.536 19.36 113.114C19.4975 113.526 19.525 113.829 18.5075 114.406L17.7925 114.819C17.0775 115.231 16.8575 116.139 17.27 116.854L18.48 118.944C18.8925 119.659 19.8 119.879 20.515 119.466L21.23 119.054C22.3025 118.449 22.6875 118.889 22.825 119.026C23.265 119.466 23.6775 119.934 24.145 120.346C24.31 120.484 24.5575 120.924 24.0075 121.859L23.54 122.656C23.1275 123.371 23.375 124.279 24.0625 124.691L26.1525 125.901C26.8675 126.314 27.775 126.066 28.1875 125.379L28.655 124.581C29.205 123.646 29.755 123.674 29.975 123.756C30.635 123.976 31.2675 124.114 31.9275 124.279C32.175 124.334 32.615 124.526 32.615 125.654V126.506C32.615 127.331 33.275 127.991 34.1 127.991H36.52C37.345 127.991 38.005 127.331 38.005 126.506V125.654C38.005 124.526 38.445 124.334 38.6925 124.279C39.38 124.086 39.985 123.976 40.6725 123.756C40.8925 123.674 41.4425 123.646 41.9925 124.581L42.46 125.379C42.8725 126.094 43.78 126.314 44.495 125.901L46.585 124.691C47.3 124.279 47.52 123.371 47.1075 122.656L46.64 121.859C46.09 120.924 46.3375 120.511 46.5025 120.346C46.97 119.934 47.41 119.466 47.8225 119.026C47.96 118.889 48.345 118.449 49.4175 119.054L50.1325 119.466C50.8475 119.879 51.755 119.631 52.1675 118.944L53.3775 116.854C53.79 116.139 53.5425 115.231 52.855 114.819L52.14 114.406C51.15 113.829 51.1775 113.526 51.2875 113.114C51.4525 112.536 51.645 111.959 51.7825 111.354C51.8925 110.831 51.8375 110.446 53.185 110.446H54.01C54.835 110.446 55.495 109.786 55.495 108.961V106.514C55.495 105.689 54.835 105.029 54.01 105.029H53.185C51.8375 105.029 51.8925 104.644 51.7825 104.121C51.645 103.516 51.48 102.939 51.2875 102.361C51.15 101.949 51.1225 101.646 52.14 101.069L52.855 100.656C53.57 100.244 53.79 99.3362 53.3775 98.6212L52.1675 96.5312C51.755 95.8162 50.8475 95.5962 50.1325 96.0087L49.4175 96.4212C48.345 97.0262 47.96 96.5862 47.8225 96.4487C47.3825 96.0087 46.97 95.5412 46.5025 95.1287C46.3375 94.9912 46.09 94.5512 46.64 93.6162L47.1075 92.8187C47.52 92.1037 47.2725 91.1962 46.585 90.7837L44.495 89.5737C43.78 89.1612 42.8725 89.4087 42.46 90.0962L41.9925 90.8937C41.4425 91.8287 40.8925 91.8012 40.6725 91.7187C40.0125 91.4987 39.38 91.3612 38.6925 91.1962C38.445 91.1412 38.005 90.9487 38.005 89.8212V88.9687C38.005 88.1437 37.345 87.4837 36.52 87.4837H34.1C33.275 87.4837 32.615 88.1437 32.615 88.9687V89.8212C32.615 90.9487 32.175 91.1412 31.9275 91.1962C31.24 91.3612 30.635 91.4987 29.975 91.7187C29.755 91.8012 29.205 91.8287 28.655 90.8937L28.1875 90.0962C27.775 89.4362 26.8675 89.1887 26.1525 89.6012ZM35.2825 95.8712C41.8275 95.8712 47.1075 101.179 47.1075 107.696C47.1075 114.214 41.8 119.521 35.2825 119.521C28.7375 119.521 23.4575 114.214 23.4575 107.696C23.4575 101.179 28.765 95.8712 35.2825 95.8712Z" fill="white" fill-opacity="0.96"/>
<path fill-rule="evenodd" clip-rule="evenodd" d="M26.2625 89.7937L24.1726 91.0037C23.8701 91.1687 23.6775 91.4437 23.595 91.7737C23.5125 92.0762 23.54 92.4337 23.7325 92.7087L24.2 93.5062C24.4475 93.9187 24.53 94.2487 24.5575 94.4962C24.585 94.9362 24.42 95.1837 24.2825 95.2937C23.8425 95.6787 23.4301 96.1187 23.0176 96.5312L22.9625 96.5862C22.7975 96.7512 22.3026 97.2737 21.0926 96.5862L20.3775 96.1737C20.075 96.0087 19.7451 95.9537 19.4426 96.0362C19.1401 96.1187 18.8651 96.3112 18.6726 96.6137L17.4625 98.6762C17.4625 98.6762 17.4626 98.7037 17.4351 98.7037C17.2701 99.0062 17.2425 99.3362 17.325 99.6387C17.4075 99.9412 17.6 100.216 17.9025 100.381C17.9025 100.381 17.9301 100.381 17.9301 100.409L18.645 100.821C19.195 101.124 19.4426 101.371 19.5801 101.619C19.7176 101.894 19.6625 102.114 19.6075 102.389L19.525 102.664C19.3875 103.159 19.2225 103.626 19.14 104.121C19.14 104.176 19.1125 104.204 19.1125 104.259C19.0025 104.836 18.92 105.221 17.49 105.221H16.665C16.335 105.221 16.0051 105.359 15.7851 105.579C15.5651 105.799 15.4275 106.129 15.4275 106.459V108.879C15.4275 109.209 15.5651 109.539 15.7851 109.759C16.0051 109.979 16.335 110.116 16.665 110.116H17.49C18.92 110.116 19.0025 110.501 19.1125 111.079C19.1125 111.106 19.14 111.161 19.14 111.216C19.25 111.711 19.3875 112.179 19.525 112.674L19.6075 112.949C19.69 113.196 19.7176 113.444 19.5801 113.719C19.4701 113.966 19.195 114.214 18.645 114.516L17.9301 114.929C17.6276 115.094 17.435 115.369 17.3525 115.699C17.27 116.001 17.2975 116.359 17.49 116.634L18.7 118.724C18.865 119.026 19.14 119.219 19.47 119.301C19.7725 119.384 20.1301 119.356 20.4051 119.164L21.12 118.751C22.33 118.064 22.825 118.586 22.99 118.751L23.045 118.806C23.4575 119.219 23.87 119.659 24.2825 120.044C24.42 120.154 24.585 120.429 24.5575 120.841C24.53 121.089 24.42 121.419 24.2 121.831L23.7325 122.629C23.5675 122.931 23.5125 123.261 23.595 123.564C23.6775 123.866 23.8701 124.141 24.1726 124.334L26.2625 125.544C26.565 125.709 26.8951 125.764 27.1976 125.681C27.5001 125.599 27.7751 125.406 27.9676 125.104L28.4351 124.306C28.6826 123.894 28.93 123.646 29.15 123.509C29.535 123.261 29.8376 123.316 30.0301 123.371C30.4976 123.509 30.965 123.646 31.4325 123.756C31.5975 123.784 31.7625 123.839 31.9825 123.894C32.1475 123.949 32.3676 124.004 32.5601 124.279C32.7251 124.499 32.8625 124.884 32.8625 125.489V126.341C32.8625 126.671 33 127.001 33.22 127.221C33.44 127.441 33.7701 127.579 34.1 127.579H36.52C36.85 127.579 37.18 127.441 37.4 127.221C37.62 127.001 37.7575 126.671 37.7575 126.341V125.489C37.7575 124.856 37.8951 124.499 38.0601 124.279C38.2526 124.031 38.4725 123.949 38.6375 123.894C38.885 123.839 39.0225 123.784 39.1875 123.756C39.6551 123.646 40.1225 123.509 40.59 123.371C40.7825 123.316 41.085 123.261 41.47 123.509C41.69 123.646 41.9376 123.894 42.1851 124.306L42.625 125.076C42.625 125.076 42.625 125.104 42.6525 125.104C42.8175 125.406 43.0925 125.599 43.395 125.681C43.6975 125.764 44.0276 125.736 44.3301 125.571C44.3301 125.571 44.3575 125.571 44.3575 125.544L46.42 124.334C46.42 124.334 46.4476 124.334 46.4476 124.306C46.7501 124.141 46.9425 123.866 47.0251 123.564C47.1075 123.261 47.08 122.931 46.915 122.629C46.915 122.629 46.915 122.601 46.8876 122.601L46.4476 121.831C46.2001 121.419 46.1175 121.089 46.09 120.841C46.0625 120.401 46.2275 120.154 46.365 120.044C46.805 119.659 47.19 119.246 47.6025 118.806L47.6575 118.724C47.8225 118.531 48.3451 118.064 49.5 118.724L50.215 119.136C50.215 119.136 50.2426 119.136 50.2426 119.164C50.5451 119.329 50.875 119.356 51.1775 119.274C51.48 119.191 51.755 118.999 51.92 118.696C51.92 118.696 51.9201 118.669 51.9476 118.669L53.1575 116.606C53.3225 116.304 53.3775 115.974 53.295 115.671C53.2125 115.369 53.0201 115.094 52.7176 114.901L52.0025 114.489C51.4525 114.186 51.2051 113.911 51.0676 113.691C50.9301 113.416 50.985 113.196 51.04 112.921L51.1226 112.646C51.2601 112.151 51.425 111.684 51.5075 111.189C51.5075 111.134 51.5351 111.106 51.5351 111.051C51.6451 110.474 51.7275 110.089 53.1575 110.089H53.9825C54.3125 110.089 54.6426 109.951 54.8625 109.731C55.0826 109.511 55.22 109.181 55.22 108.851V106.514C55.22 106.156 55.0826 105.854 54.8625 105.634C54.6426 105.414 54.3125 105.276 53.9825 105.276H53.1575C51.7275 105.276 51.6451 104.891 51.5351 104.314C51.5351 104.286 51.5075 104.231 51.5075 104.176C51.3975 103.709 51.2601 103.214 51.1226 102.719L51.04 102.444C50.9575 102.196 50.9026 101.949 51.0676 101.674C51.1776 101.426 51.4525 101.179 52.0025 100.876L52.7176 100.464C53.0201 100.299 53.2125 100.024 53.295 99.6937C53.3775 99.3912 53.35 99.0337 53.1575 98.7587L51.9476 96.6687C51.7826 96.3662 51.5075 96.1737 51.1775 96.0912C50.875 96.0087 50.5176 96.0362 50.2426 96.2287L49.5 96.6137C48.2901 97.3012 47.7951 96.7787 47.6301 96.6137L47.5751 96.5587C47.1625 96.1462 46.75 95.7062 46.3375 95.3212C46.2001 95.2112 46.035 94.9362 46.0625 94.5237C46.09 94.2762 46.2 93.9462 46.42 93.5337L46.8876 92.7362C47.0526 92.4337 47.1075 92.1037 47.0251 91.8012C46.9425 91.4987 46.7501 91.2237 46.4476 91.0312L44.3575 89.8212C44.055 89.6562 43.7251 89.6012 43.4226 89.6837C43.1201 89.7662 42.845 89.9587 42.6525 90.2612L42.1851 91.0587C41.9376 91.4712 41.69 91.7187 41.47 91.8562C41.085 92.1037 40.7825 92.0487 40.59 91.9937C40.1225 91.8562 39.6551 91.7187 39.1875 91.6087C39.0225 91.5812 38.8575 91.5262 38.6375 91.4712C38.4725 91.4162 38.2526 91.3612 38.0601 91.0862C37.8951 90.8662 37.7575 90.4812 37.7575 89.8762V89.0237C37.7575 88.6937 37.62 88.3637 37.4 88.1437C37.18 87.9237 36.85 87.7862 36.52 87.7862H34.1C33.7701 87.7862 33.44 87.9237 33.22 88.1437C33 88.3637 32.8625 88.6937 32.8625 89.0237V89.8762C32.8625 90.5087 32.7251 90.8662 32.5601 91.0862C32.3676 91.3337 32.1475 91.4162 31.9825 91.4712C31.735 91.5262 31.5975 91.5812 31.4325 91.6087C30.965 91.7187 30.4976 91.8562 30.0301 91.9937C29.8376 92.0487 29.535 92.1037 29.15 91.8562C28.93 91.7187 28.6826 91.4712 28.4351 91.0587L27.9676 90.2612C27.8026 89.9587 27.5276 89.7662 27.1976 89.6837C26.9226 89.6012 26.565 89.6287 26.2625 89.7937ZM23.9525 90.6187L26.0426 89.4087C26.4551 89.1612 26.9226 89.1337 27.3351 89.2437C27.7476 89.3537 28.1326 89.6287 28.3801 90.0412L28.8476 90.8387C29.0401 91.1687 29.2326 91.3887 29.3976 91.4712C29.6176 91.6087 29.8101 91.5812 29.8926 91.5537C30.3876 91.3887 30.8551 91.2787 31.3226 91.1687C31.5151 91.1137 31.7351 91.0587 31.8726 91.0312C31.9551 91.0037 32.0925 90.9762 32.175 90.8387C32.285 90.6737 32.3676 90.3987 32.3676 89.8762V89.0237C32.3676 88.5562 32.56 88.1162 32.8625 87.8137C33.165 87.5112 33.6051 87.3187 34.0726 87.3187H36.4926C36.9601 87.3187 37.4 87.5112 37.7025 87.8137C38.005 88.1162 38.1976 88.5562 38.1976 89.0237V89.8762C38.1976 90.3987 38.28 90.6737 38.39 90.8387C38.4725 90.9762 38.6101 91.0037 38.6926 91.0312C38.8301 91.0587 39.0501 91.1137 39.2426 91.1687C39.7101 91.2787 40.1776 91.3887 40.6726 91.5537C40.7826 91.5812 40.9476 91.6087 41.1676 91.4712C41.3326 91.3612 41.5251 91.1687 41.7176 90.8387L42.1851 90.0412C42.4326 89.6287 42.7901 89.3537 43.2301 89.2437C43.6426 89.1337 44.1101 89.1887 44.5226 89.4087L46.5851 90.6187C46.5851 90.6187 46.6125 90.6187 46.6125 90.6462C46.9976 90.8937 47.2725 91.2512 47.3825 91.6912C47.4925 92.1037 47.4376 92.5712 47.2176 92.9837C47.2176 92.9837 47.2175 93.0112 47.19 93.0112L46.75 93.7812C46.5576 94.1387 46.4751 94.3862 46.4476 94.5787C46.4201 94.8262 46.5025 94.9362 46.5575 94.9912C46.9975 95.4037 47.4101 95.8162 47.8226 96.2562L47.8775 96.3112C47.9875 96.4212 48.29 96.7512 49.17 96.2287L49.8851 95.8162C49.8851 95.8162 49.9125 95.8162 49.9125 95.7887C50.3251 95.5687 50.7651 95.5137 51.2051 95.6237C51.6176 95.7337 52.0025 96.0087 52.25 96.3937C52.25 96.3937 52.25 96.4212 52.2775 96.4212L53.4875 98.4837C53.7351 98.8962 53.7625 99.3637 53.6525 99.7762C53.5425 100.189 53.2676 100.574 52.8551 100.821L52.14 101.234C51.6725 101.509 51.4801 101.674 51.3976 101.839C51.3426 101.949 51.37 102.086 51.425 102.251L51.5075 102.526C51.645 103.021 51.81 103.489 51.92 104.011C51.92 104.039 51.9476 104.094 51.9476 104.149C52.0026 104.506 52.0575 104.754 53.1025 104.754H53.9275C54.395 104.754 54.835 104.946 55.1376 105.249C55.44 105.551 55.6325 105.991 55.6325 106.459V108.879C55.6325 109.346 55.44 109.786 55.1376 110.089C54.835 110.391 54.395 110.584 53.9275 110.584H53.1025C52.0575 110.584 52.0026 110.831 51.9476 111.189C51.9476 111.244 51.92 111.299 51.92 111.326C51.81 111.849 51.6725 112.344 51.5075 112.811L51.425 113.086C51.37 113.251 51.3426 113.389 51.3976 113.499C51.4801 113.664 51.7 113.856 52.14 114.104L52.8551 114.516C53.2676 114.764 53.5425 115.121 53.6525 115.561C53.7625 115.974 53.7076 116.441 53.4875 116.854L52.2775 118.944C52.03 119.356 51.6725 119.631 51.2325 119.741C50.82 119.851 50.3525 119.796 49.94 119.576L49.225 119.164C48.3726 118.669 48.0425 118.944 47.9325 119.081L47.8775 119.164C47.465 119.604 47.0526 120.016 46.6125 120.429C46.5576 120.484 46.475 120.621 46.5025 120.841C46.53 121.034 46.6126 121.309 46.8051 121.639L47.2726 122.436C47.5201 122.849 47.5476 123.316 47.4375 123.729C47.3275 124.141 47.0525 124.526 46.64 124.774L44.5775 125.984C44.165 126.231 43.6976 126.259 43.2851 126.149C42.8726 126.039 42.4875 125.764 42.24 125.379L41.7726 124.581C41.5801 124.251 41.3876 124.031 41.2226 123.949C41.0026 123.811 40.81 123.839 40.7275 123.866C40.2325 124.031 39.7651 124.141 39.2976 124.251C39.1051 124.306 38.8851 124.361 38.7476 124.389C38.6651 124.416 38.5275 124.444 38.445 124.581C38.335 124.746 38.2525 125.021 38.2525 125.544V126.396C38.2525 126.864 38.06 127.304 37.7575 127.606C37.455 127.909 37.0151 128.101 36.5476 128.101H34.1C33.6325 128.101 33.1925 127.909 32.89 127.606C32.5875 127.304 32.395 126.864 32.395 126.396V125.544C32.395 125.021 32.3125 124.746 32.2025 124.581C32.12 124.444 31.9825 124.416 31.9 124.389C31.7625 124.361 31.5425 124.306 31.35 124.251C30.8825 124.141 30.415 124.031 29.92 123.866C29.8375 123.839 29.645 123.811 29.425 123.949C29.26 124.059 29.0675 124.251 28.875 124.581L28.4075 125.379C28.16 125.791 27.8025 126.066 27.3625 126.176C26.95 126.286 26.4825 126.231 26.07 126.011L23.9801 124.801C23.5676 124.554 23.2925 124.196 23.1825 123.756C23.0725 123.344 23.1276 122.876 23.3476 122.464L23.815 121.666C24.0075 121.309 24.0901 121.061 24.1176 120.869C24.1451 120.621 24.0625 120.511 24.0075 120.456C23.5675 120.044 23.1551 119.631 22.7426 119.191L22.6875 119.136C22.5775 119.026 22.275 118.696 21.395 119.219L20.6801 119.631C20.2676 119.879 19.8 119.906 19.3875 119.796C18.975 119.686 18.5901 119.411 18.3426 118.999L17.1325 116.909C16.885 116.496 16.8576 116.029 16.9676 115.616C17.0776 115.204 17.3525 114.819 17.765 114.571L18.4801 114.159C18.9476 113.884 19.1401 113.719 19.2226 113.554C19.2776 113.416 19.25 113.306 19.195 113.141L19.1125 112.866C18.975 112.371 18.81 111.904 18.7 111.381C18.7 111.354 18.6726 111.299 18.6726 111.244C18.6176 110.886 18.5626 110.639 17.5176 110.639H16.6926C16.2251 110.639 15.785 110.446 15.4825 110.144C15.18 109.841 14.9875 109.401 14.9875 108.934V106.514C14.9875 106.046 15.18 105.606 15.4825 105.304C15.785 105.001 16.2251 104.809 16.6926 104.809H17.5176C18.5626 104.809 18.6176 104.561 18.6726 104.204C18.6726 104.149 18.7 104.094 18.7 104.066C18.81 103.544 18.9475 103.049 19.1125 102.581L19.195 102.306C19.25 102.141 19.2776 102.004 19.2226 101.894C19.1401 101.729 18.9201 101.536 18.4801 101.289L17.765 100.876C17.3525 100.629 17.0776 100.271 16.9676 99.8312C16.8576 99.4187 16.9125 98.9512 17.1325 98.5387L18.3426 96.4487C18.5901 96.0362 18.9475 95.7612 19.3875 95.6512C19.8 95.5412 20.2676 95.5962 20.6801 95.8162L21.395 96.2287C22.275 96.7512 22.605 96.4212 22.6875 96.3112L22.7426 96.2562C23.1551 95.8162 23.5675 95.4037 24.0075 94.9912C24.0625 94.9362 24.1451 94.7987 24.1176 94.5787C24.0901 94.3862 24.0075 94.1112 23.815 93.7812L23.3476 92.9837C23.1001 92.5712 23.0725 92.1037 23.1825 91.6912C23.265 91.2237 23.54 90.8662 23.9525 90.6187ZM42.625 125.186C42.68 125.296 42.6526 125.406 42.5426 125.489L42.625 125.186ZM35.2825 95.6512C38.61 95.6512 41.635 96.9987 43.8075 99.1987C45.98 101.371 47.3551 104.396 47.3551 107.724C47.3551 111.051 46.0075 114.076 43.8075 116.249C41.635 118.421 38.61 119.796 35.2825 119.796C31.955 119.796 28.93 118.449 26.7575 116.249C24.585 114.076 23.2101 111.051 23.2101 107.724C23.2101 104.396 24.5575 101.371 26.7575 99.1987C28.9575 96.9987 31.955 95.6512 35.2825 95.6512ZM43.5051 99.5012C45.5951 101.591 46.915 104.506 46.915 107.696C46.915 110.886 45.6226 113.801 43.5051 115.891C41.4151 117.981 38.5001 119.301 35.3101 119.301C32.0926 119.301 29.205 118.009 27.115 115.891C25.025 113.801 23.7051 110.886 23.7051 107.696C23.7051 104.506 24.9975 101.591 27.115 99.5012C29.205 97.4112 32.1201 96.0912 35.3101 96.0912C38.5001 96.1187 41.3876 97.4112 43.5051 99.5012Z" fill="white" fill-opacity="0.96"/>
<path opacity="0.42" fill-rule="evenodd" clip-rule="evenodd" d="M48.5375 86.2737C50.985 90.0962 52.3875 94.6337 52.3875 99.5012C52.3875 113.059 41.3875 124.059 27.83 124.059C23.1275 124.059 18.7275 122.739 14.9875 120.429C19.36 127.249 26.9775 131.759 35.695 131.759C49.2525 131.759 60.2525 120.759 60.2525 107.201C60.2525 98.3462 55.55 90.5912 48.5375 86.2737ZM43.0925 158.406C45.54 162.229 46.97 166.766 46.97 171.634C46.97 185.191 35.97 196.191 22.4125 196.191C17.71 196.191 13.31 194.871 9.57001 192.561C13.9425 199.381 21.56 203.891 30.2775 203.891C43.835 203.891 54.835 192.891 54.835 179.334C54.8075 170.479 50.1325 162.724 43.0925 158.406ZM102.74 30.2287C105.188 34.0512 106.618 38.5887 106.618 43.4562C106.618 57.0137 95.6175 68.0137 82.06 68.0137C77.3575 68.0137 72.9575 66.6937 69.2175 64.3837C73.59 71.2037 81.2075 75.7137 89.925 75.7137C103.483 75.7137 114.483 64.7137 114.483 51.1562C114.455 42.3287 109.78 34.5737 102.74 30.2287ZM174.735 12.8762C177.183 16.6987 178.585 21.2362 178.585 26.1037C178.585 39.6612 167.585 50.6612 154.028 50.6612C149.325 50.6612 144.925 49.3412 141.185 47.0312C145.558 53.8512 153.175 58.3612 161.893 58.3612C175.45 58.3612 186.45 47.3612 186.45 33.8037C186.423 24.9487 181.748 17.1937 174.735 12.8762Z" fill="#AAD9FF" fill-opacity="0.5"/>
<defs>
<linearGradient id="paint0_linear_30_2" x1="162.855" y1="283.878" x2="162.855" y2="348.878" gradientUnits="userSpaceOnUse">
<stop stop-color="#00C2FF" stop-opacity="0.44"/>
<stop offset="1" stop-color="#0086F4" stop-opacity="0.57"/>
</linearGradient>
<linearGradient id="paint1_linear_30_2" x1="30.25" y1="150.431" x2="30.25" y2="208.291" gradientUnits="userSpaceOnUse">
<stop stop-color="#0086F4"/>
<stop offset="1" stop-color="#00BFFF"/>
</linearGradient>
<linearGradient id="paint2_linear_30_2" x1="35.695" y1="78.2987" x2="35.695" y2="136.159" gradientUnits="userSpaceOnUse">
<stop stop-color="#0086F4"/>
<stop offset="1" stop-color="#00BFFF"/>
</linearGradient>
<linearGradient id="paint3_linear_30_2" x1="78.7417" y1="24.5092" x2="101.068" y2="77.8881" gradientUnits="userSpaceOnUse">
<stop stop-color="#0086F4"/>
<stop offset="1" stop-color="#00BFFF"/>
</linearGradient>
<linearGradient id="paint4_linear_30_2" x1="161.865" y1="4.9012" x2="161.865" y2="62.7612" gradientUnits="userSpaceOnUse">
<stop stop-color="#0086F4"/>
<stop offset="1" stop-color="#61A0E0"/>
</linearGradient>
</defs>
</svg>
