<svg width="496" height="496" viewBox="0 0 496 496" fill="none" xmlns="http://www.w3.org/2000/svg">
<path fill-rule="evenodd" clip-rule="evenodd" d="M247.799 0.000999928C293.952 0.527667 335.648 11.871 372.885 34.031C409.677 55.7481 440.283 86.541 461.775 123.465C483.8 160.926 495.075 202.873 495.6 249.308C494.292 312.841 474.253 367.105 435.483 412.098C396.713 457.093 347.058 484.928 295.656 495.599V317.473H344.253L355.243 247.473H281.656V201.625C281.248 192.12 284.253 182.783 290.13 175.302C296.015 167.8 306.378 163.857 321.22 163.473H365.656V102.155C365.018 101.95 358.968 101.138 347.506 99.721C334.506 98.1999 321.434 97.3873 308.346 97.287C278.724 97.4237 255.297 105.78 238.065 122.355C220.832 138.925 212.029 162.898 211.656 194.275V247.473H155.656V317.473H211.656V495.6C148.541 484.93 98.886 457.094 60.116 412.1C21.346 367.106 1.308 312.841 0 249.308C0.523333 202.871 11.798 160.924 33.824 123.465C55.3165 86.5406 85.9224 55.7474 122.715 34.03C159.951 11.8747 201.646 0.532333 247.799 0.000999928Z" fill="#fff"/>
</svg>
