<svg width="100" height="100" viewBox="0 0 100 100" fill="none" xmlns="http://www.w3.org/2000/svg">
<path fill-rule="evenodd" clip-rule="evenodd" d="M12.5 17.5C15.2614 17.5 17.5 19.7386 17.5 22.5V30C17.5 32.7614 15.2614 35 12.5 35H5C2.23858 35 0 32.7614 0 30V22.5C0 19.7386 2.23858 17.5 5 17.5H12.5Z" fill="white"/>
<path fill-rule="evenodd" clip-rule="evenodd" d="M77.5 17.5C80.2614 17.5 82.5 19.7386 82.5 22.5V77.5C82.5 80.2614 80.2614 82.5 77.5 82.5H22.5C19.7386 82.5 17.5 80.2614 17.5 77.5V57.5C17.5 54.7386 15.2614 52.5 12.5 52.5H5C2.23858 52.5 0 54.7386 0 57.5V82.5V95C0 97.7614 2.23858 100 5 100H17.5H82.5H95C97.7614 100 100 97.7614 100 95V82.5V17.5V5C100 2.23858 97.7614 0 95 0H82.5H22.5C19.7386 0 17.5 2.23858 17.5 5V17.5H77.5Z" fill="white"/>
<rect x="12.5" y="17.5" width="5" height="5" fill="white"/>
</svg>
