<svg width="141" height="141" viewBox="0 0 141 141" fill="none" xmlns="http://www.w3.org/2000/svg">
<path fill-rule="evenodd" clip-rule="evenodd" d="M23 16H119C122.314 16 125 18.6863 125 22V119C125 122.314 122.314 125 119 125H22C18.6863 125 16 122.314 16 119V60H0V119C0 131.15 9.84974 141 22 141H119C131.15 141 141 131.15 141 119V22C141 9.84974 131.15 0 119 0H22C11.9298 0 3.43985 6.76598 0.828131 16H22H23Z" fill="url(#paint0_linear_1383_22855)"/>
<rect y="30" width="16" height="16" fill="#546672"/>
<defs>
<linearGradient id="paint0_linear_1383_22855" x1="134.856" y1="7.11468" x2="9.70183" y2="141" gradientUnits="userSpaceOnUse">
<stop offset="0.218677" stop-color="#546672"/>
<stop offset="1" stop-color="#94C9C9"/>
</linearGradient>
</defs>
</svg>
