<svg width="24" height="24" viewBox="0 0 24 24" fill="none" xmlns="http://www.w3.org/2000/svg">
<path fill-rule="evenodd" clip-rule="evenodd" d="M21.8678 12.4975C21.4527 13.2205 20.4767 14.7385 18.9548 16.1265L17.5437 14.7155C18.6038 13.7645 19.3708 12.7185 19.8267 12.0045C18.8948 10.5855 16.0717 6.8935 11.7808 7.0025C11.1807 7.0175 10.6178 7.1115 10.0817 7.2535L8.50175 5.6735C9.47375 5.2895 10.5448 5.0335 11.7297 5.0035C17.7048 4.8165 21.2297 10.3905 21.8678 11.5025C22.0438 11.8105 22.0438 12.1895 21.8678 12.4975ZM13.9178 16.7465L15.4978 18.3265C14.5268 18.7105 13.4548 18.9665 12.2708 18.9965C12.1888 18.9985 12.1067 18.9995 12.0247 18.9995C6.16175 18.9995 2.76175 13.5945 2.13275 12.4975C1.95575 12.1895 1.95575 11.8105 2.13275 11.5025C2.54675 10.7795 3.52275 9.2615 5.04475 7.8725L6.45575 9.2845C5.39575 10.2355 4.62975 11.2815 4.17275 11.9955C5.10475 13.4145 7.91475 17.0975 12.2198 16.9975C12.8198 16.9825 13.3828 16.8885 13.9178 16.7465ZM11.9998 13.4995C11.1728 13.4995 10.4998 12.8275 10.4998 11.9995C10.4998 11.9745 10.5107 11.9515 10.5118 11.9255L12.0747 13.4885C12.0487 13.4895 12.0258 13.4995 11.9998 13.4995ZM4.70675 3.2925C4.31675 2.9025 3.68375 2.9025 3.29275 3.2925C2.90275 3.6835 2.90275 4.3165 3.29275 4.7065L8.92375 10.3375C8.64675 10.8455 8.49975 11.4105 8.49975 11.9995C8.49975 13.9295 10.0708 15.4995 11.9998 15.4995C12.5898 15.4995 13.1547 15.3525 13.6628 15.0765L19.2927 20.7065C19.4888 20.9025 19.7437 20.9995 19.9998 20.9995C20.2558 20.9995 20.5117 20.9025 20.7067 20.7065C21.0977 20.3165 21.0977 19.6835 20.7067 19.2925L4.70675 3.2925Z" fill="black"/>
</svg>
