<svg width="38" height="39" viewBox="0 0 38 39" fill="none" xmlns="http://www.w3.org/2000/svg">
<path d="M37.0035 27.9468L31.6894 22.6327C29.7914 20.7348 26.565 21.494 25.8058 23.9612C25.2364 25.6694 23.3385 26.6184 21.6304 26.2387C17.8346 25.2898 12.7102 20.3552 11.7612 16.3695C11.1918 14.6613 12.3306 12.7634 14.0387 12.1941C16.506 11.435 17.2652 8.2085 15.3673 6.31058L10.0531 0.996407C8.53476 -0.332136 6.25726 -0.332136 4.92872 0.996407L1.32267 4.60245C-2.28337 8.39829 1.70226 18.4573 10.6225 27.3775C19.5427 36.2977 29.6017 40.4732 33.3975 36.6773L37.0035 33.0712C38.3322 31.5529 38.3322 29.2754 37.0035 27.9468Z" fill="#fff"/>
</svg>
