<svg width="35" height="35" viewBox="0 0 35 35" fill="none" xmlns="http://www.w3.org/2000/svg">
<path fill-rule="evenodd" clip-rule="evenodd" d="M17.5 0C7.84766 0 0 7.84766 0 17.5C0 27.1523 7.84766 35 17.5 35C27.1523 35 35 27.1523 35 17.5C35 7.84766 27.1523 0 17.5 0Z" fill="#4BAE4F"/>
<path d="M7.92969 19.1138V15.8804C7.92969 15.5522 8.19629 15.2788 8.53125 15.2788H15.292V8.5249C15.292 8.19678 15.5586 7.92334 15.8936 7.92334H19.127C19.4551 7.92334 19.7217 8.18994 19.7217 8.5249V15.2856H26.4756C26.8037 15.2856 27.0771 15.5522 27.0771 15.8872V19.1206C27.0771 19.4487 26.8105 19.7153 26.4756 19.7153H19.7148V26.4692C19.7148 26.7974 19.4482 27.0708 19.1201 27.0708H15.8867C15.5586 27.0708 15.2852 26.8042 15.2852 26.4692V19.7085H8.53125C8.19629 19.7153 7.92969 19.4419 7.92969 19.1138Z" fill="white"/>
</svg>
