<svg width="100" height="100" viewBox="0 0 100 100" fill="none" xmlns="http://www.w3.org/2000/svg">
<path fill-rule="evenodd" clip-rule="evenodd" d="M85 17.5C85 16.1193 83.8807 15 82.5 15H15V2.5C15 1.11929 16.1193 0 17.5 0H85H97.5C98.8807 0 100 1.11929 100 2.5V15V85V97.5C100 98.8807 98.8807 100 97.5 100H85H15H2.5C1.11929 100 0 98.8807 0 97.5V85V47.5C0 46.1193 1.11929 45 2.5 45H12.5C13.8807 45 15 46.1193 15 47.5V82.5C15 83.8807 16.1193 85 17.5 85H82.5C83.8807 85 85 83.8807 85 82.5V17.5ZM12.5 30C13.8807 30 15 28.8807 15 27.5V15H2.5C1.11929 15 0 16.1193 0 17.5V27.5C0 28.8807 1.11929 30 2.5 30H12.5Z" fill="white"/>
</svg>
