<svg width="187" height="219" viewBox="0 0 187 219" fill="none" xmlns="http://www.w3.org/2000/svg">
<path d="M129.364 214.575H57.4249H57.2661L57.108 214.589C56.1995 214.672 54.5496 214.081 52.8868 212.322C51.2733 210.616 50.3924 208.567 50.3924 207.048V207.017L50.3919 206.987C49.9506 181.534 38.7713 165.089 27.7661 148.9L27.3952 148.354C16.2756 131.994 5.31737 115.631 3.663 89.4584L129.364 214.575ZM129.364 214.575C132.404 212.947 134.252 210.305 134.252 206.195V204.38V204.35L134.253 204.319C134.708 178.098 146.433 161.164 157.981 144.484L158.37 143.923C170.046 127.056 181.558 110.178 183.292 83.1831L183.292 83.1792C183.553 79.1842 183.53 75.2795 183.226 71.5161C176.512 31.1009 137.921 3.5 93.8899 3.5C43.6088 3.5 0.522117 39.3719 3.6629 89.4568L129.364 214.575Z" stroke="url(#paint0_linear_29_319)" stroke-width="7"/>
<defs>
<linearGradient id="paint0_linear_29_319" x1="93.4862" y1="0" x2="93.4862" y2="218.097" gradientUnits="userSpaceOnUse">
<stop stop-color="#0086F4"/>
<stop offset="1" stop-color="#00C2FF"/>
</linearGradient>
</defs>
</svg>
