<svg width="50" height="50" viewBox="0 0 50 50" fill="none" xmlns="http://www.w3.org/2000/svg">
<circle cx="25" cy="25" r="25" fill="#D9D9D9"/>
<path d="M25.0748 11.5674C21.2231 11.5674 18.0895 14.701 18.0895 18.5527C18.0895 22.4044 21.2231 25.5381 25.0748 25.5381C28.9266 25.5381 32.0602 22.4044 32.0602 18.5527C32.0602 14.701 28.9266 11.5674 25.0748 11.5674ZM33.766 30.1016C31.8535 28.1597 29.3183 27.0904 26.6271 27.0904H23.5225C20.8315 27.0904 18.2962 28.1597 16.3837 30.1016C14.4807 32.0339 13.4326 34.5845 13.4326 37.2838C13.4326 37.7124 13.7801 38.0599 14.2088 38.0599H35.9409C36.3696 38.0599 36.7171 37.7124 36.7171 37.2838C36.7171 34.5845 35.669 32.0339 33.766 30.1016Z" fill="#5E5E5E"/>
</svg>
