<svg width="320" height="172" viewBox="0 0 320 172" fill="none" xmlns="http://www.w3.org/2000/svg">
<rect width="320" height="172" fill="#020449"/>
<path d="M89.9435 58.304H99.9915V95.552H122.263V104H89.9435V58.304ZM124.617 87.488C124.617 84.8427 125.022 82.4533 125.833 80.32C126.644 78.144 127.796 76.3093 129.289 74.816C130.782 73.28 132.574 72.1067 134.665 71.296C136.756 70.4427 139.102 70.016 141.705 70.016C144.308 70.016 146.654 70.4427 148.745 71.296C150.878 72.1067 152.692 73.28 154.185 74.816C155.678 76.3093 156.83 78.144 157.641 80.32C158.452 82.4533 158.857 84.8427 158.857 87.488C158.857 90.1333 158.452 92.5227 157.641 94.656C156.83 96.7893 155.678 98.624 154.185 100.16C152.692 101.653 150.878 102.827 148.745 103.68C146.654 104.491 144.308 104.896 141.705 104.896C139.102 104.896 136.756 104.491 134.665 103.68C132.574 102.827 130.782 101.653 129.289 100.16C127.796 98.624 126.644 96.7893 125.833 94.656C125.022 92.5227 124.617 90.1333 124.617 87.488ZM133.705 87.488C133.705 88.8107 133.833 90.112 134.089 91.392C134.345 92.6293 134.772 93.76 135.369 94.784C136.009 95.7653 136.841 96.5547 137.865 97.152C138.889 97.7493 140.169 98.048 141.705 98.048C143.241 98.048 144.521 97.7493 145.545 97.152C146.612 96.5547 147.444 95.7653 148.041 94.784C148.681 93.76 149.129 92.6293 149.385 91.392C149.641 90.112 149.769 88.8107 149.769 87.488C149.769 86.1653 149.641 84.864 149.385 83.584C149.129 82.304 148.681 81.1733 148.041 80.192C147.444 79.2107 146.612 78.4213 145.545 77.824C144.521 77.184 143.241 76.864 141.705 76.864C140.169 76.864 138.889 77.184 137.865 77.824C136.841 78.4213 136.009 79.2107 135.369 80.192C134.772 81.1733 134.345 82.304 134.089 83.584C133.833 84.864 133.705 86.1653 133.705 87.488ZM195.294 101.888C195.294 102.784 195.209 103.765 195.038 104.832C194.91 105.941 194.633 107.029 194.206 108.096C193.779 109.205 193.182 110.251 192.414 111.232C191.646 112.256 190.622 113.152 189.342 113.92C188.062 114.731 186.505 115.371 184.67 115.84C182.835 116.309 180.659 116.544 178.142 116.544C176.521 116.544 174.857 116.331 173.15 115.904C171.486 115.52 169.95 114.901 168.542 114.048C167.177 113.195 166.025 112.085 165.086 110.72C164.19 109.397 163.678 107.797 163.55 105.92H172.574C173.001 107.627 173.833 108.8 175.07 109.44C176.307 110.123 177.737 110.464 179.358 110.464C181.875 110.464 183.731 109.696 184.926 108.16C186.121 106.624 186.697 104.661 186.654 102.272V97.92H186.526C185.545 99.6693 184.137 100.971 182.302 101.824C180.51 102.635 178.611 103.04 176.606 103.04C174.131 103.04 171.998 102.613 170.206 101.76C168.414 100.864 166.942 99.6693 165.79 98.176C164.638 96.64 163.785 94.8693 163.23 92.864C162.718 90.816 162.462 88.6613 162.462 86.4C162.462 84.2667 162.761 82.2187 163.358 80.256C163.998 78.2507 164.915 76.5013 166.11 75.008C167.305 73.472 168.777 72.256 170.526 71.36C172.318 70.464 174.366 70.016 176.67 70.016C178.846 70.016 180.745 70.4213 182.366 71.232C184.03 72.0427 185.417 73.408 186.526 75.328H186.654V70.912H195.294V101.888ZM178.91 96.192C180.19 96.192 181.321 95.936 182.302 95.424C183.283 94.912 184.094 94.2293 184.734 93.376C185.374 92.5227 185.843 91.5627 186.142 90.496C186.483 89.3867 186.654 88.2347 186.654 87.04C186.654 85.7173 186.526 84.4373 186.27 83.2C186.014 81.9627 185.587 80.8747 184.99 79.936C184.393 78.9973 183.582 78.2507 182.558 77.696C181.577 77.1413 180.361 76.864 178.91 76.864C177.63 76.864 176.521 77.12 175.582 77.632C174.686 78.144 173.918 78.848 173.278 79.744C172.681 80.5973 172.233 81.6 171.934 82.752C171.678 83.8613 171.55 85.0347 171.55 86.272C171.55 87.4667 171.657 88.6613 171.87 89.856C172.126 91.008 172.531 92.0533 173.086 92.992C173.683 93.9307 174.451 94.6987 175.39 95.296C176.329 95.8933 177.502 96.192 178.91 96.192ZM200.307 87.488C200.307 84.8427 200.712 82.4533 201.523 80.32C202.334 78.144 203.486 76.3093 204.979 74.816C206.472 73.28 208.264 72.1067 210.355 71.296C212.446 70.4427 214.792 70.016 217.395 70.016C219.998 70.016 222.344 70.4427 224.435 71.296C226.568 72.1067 228.382 73.28 229.875 74.816C231.368 76.3093 232.52 78.144 233.331 80.32C234.142 82.4533 234.547 84.8427 234.547 87.488C234.547 90.1333 234.142 92.5227 233.331 94.656C232.52 96.7893 231.368 98.624 229.875 100.16C228.382 101.653 226.568 102.827 224.435 103.68C222.344 104.491 219.998 104.896 217.395 104.896C214.792 104.896 212.446 104.491 210.355 103.68C208.264 102.827 206.472 101.653 204.979 100.16C203.486 98.624 202.334 96.7893 201.523 94.656C200.712 92.5227 200.307 90.1333 200.307 87.488ZM209.395 87.488C209.395 88.8107 209.523 90.112 209.779 91.392C210.035 92.6293 210.462 93.76 211.059 94.784C211.699 95.7653 212.531 96.5547 213.555 97.152C214.579 97.7493 215.859 98.048 217.395 98.048C218.931 98.048 220.211 97.7493 221.235 97.152C222.302 96.5547 223.134 95.7653 223.731 94.784C224.371 93.76 224.819 92.6293 225.075 91.392C225.331 90.112 225.459 88.8107 225.459 87.488C225.459 86.1653 225.331 84.864 225.075 83.584C224.819 82.304 224.371 81.1733 223.731 80.192C223.134 79.2107 222.302 78.4213 221.235 77.824C220.211 77.184 218.931 76.864 217.395 76.864C215.859 76.864 214.579 77.184 213.555 77.824C212.531 78.4213 211.699 79.2107 211.059 80.192C210.462 81.1733 210.035 82.304 209.779 83.584C209.523 84.864 209.395 86.1653 209.395 87.488Z" fill="white"/>
</svg>
