<svg width="13" height="13" viewBox="0 0 13 13" fill="none" xmlns="http://www.w3.org/2000/svg">
<path d="M9.33283 6.52309C9.08476 6.40505 8.82957 6.3026 8.56875 6.21634C9.40875 5.58584 9.95312 4.58187 9.95312 3.45313C9.95312 1.54908 8.40407 0 6.5 0C4.59593 0 3.04687 1.54908 3.04687 3.45313C3.04687 4.58311 3.59246 5.58807 4.43403 6.21845C3.66297 6.4723 2.93947 6.86731 2.30622 7.38817C1.14506 8.34329 0.337711 9.67551 0.0329473 11.1395C-0.0625723 11.5982 0.0518633 12.0693 0.346852 12.432C0.640393 12.793 1.07566 13 1.54102 13H7.79492C8.07538 13 8.30273 12.7727 8.30273 12.4922C8.30273 12.2117 8.07538 11.9844 7.79492 11.9844H1.54102C1.32424 11.9844 1.19345 11.8634 1.1348 11.7913C1.03352 11.6667 0.994313 11.5046 1.02724 11.3464C1.55423 8.81512 3.78698 6.96603 6.36537 6.90367C6.45553 6.90715 6.54578 6.90713 6.63594 6.90361C7.42609 6.92215 8.18604 7.10247 8.89682 7.44037C9.15014 7.56073 9.45305 7.45304 9.57346 7.19972C9.69386 6.94642 9.58615 6.64349 9.33283 6.52309ZM6.62385 5.88751C6.54161 5.88599 6.45935 5.886 6.3771 5.88756C5.08993 5.82334 4.06249 4.75597 4.06249 3.45313C4.06249 2.10907 5.15594 1.01563 6.5 1.01563C7.84405 1.01563 8.9375 2.10907 8.9375 3.45313C8.9375 4.75564 7.91057 5.82281 6.62385 5.88751Z" fill="#4481EB"/>
<path d="M12.4921 10.0801H11.0957V8.6836C11.0957 8.40313 10.8683 8.17579 10.5878 8.17579C10.3074 8.17579 10.08 8.40313 10.08 8.6836V10.0801H8.68355C8.40308 10.0801 8.17574 10.3074 8.17574 10.5879C8.17574 10.8684 8.40308 11.0957 8.68355 11.0957H10.08V12.4922C10.08 12.7727 10.3074 13 10.5878 13C10.8683 13 11.0957 12.7727 11.0957 12.4922V11.0957H12.4921C12.7726 11.0957 13 10.8684 13 10.5879C13 10.3074 12.7726 10.0801 12.4921 10.0801Z" fill="#4481EB"/>
</svg>
