<svg width="25" height="25" viewBox="0 0 25 25" fill="none" xmlns="http://www.w3.org/2000/svg">
<path fill-rule="evenodd" clip-rule="evenodd" d="M24.5231 0.477968C24.8285 0.78371 25 1.19816 25 1.63027C25 2.06239 24.8285 2.47684 24.5231 2.78258L14.8068 12.5011L24.5253 22.2196C24.8222 22.5273 24.9864 22.9392 24.9824 23.3668C24.9785 23.7943 24.8068 24.2032 24.5044 24.5054C24.2019 24.8076 23.7928 24.9789 23.3653 24.9824C22.9377 24.9859 22.5259 24.8214 22.2185 24.5242L11.3477 13.6534C11.0423 13.3476 10.8708 12.9332 10.8708 12.5011C10.8708 12.069 11.0423 11.6545 11.3477 11.3488L22.2185 0.477968C22.3699 0.32644 22.5497 0.206235 22.7477 0.124224C22.9456 0.0422118 23.1577 0 23.3719 0C23.5861 0 23.7983 0.0422118 23.9962 0.124224C24.1941 0.206235 24.3739 0.32644 24.5253 0.477968H24.5231Z" fill="#4481EB"/>
<path fill-rule="evenodd" clip-rule="evenodd" d="M13.6523 0.477968C13.9577 0.78371 14.1292 1.19816 14.1292 1.63027C14.1292 2.06239 13.9577 2.47684 13.6523 2.78258L3.93597 12.5011L13.6545 22.2196C13.9514 22.5273 14.1155 22.9392 14.1116 23.3668C14.1077 23.7943 13.936 24.2032 13.6335 24.5054C13.3311 24.8076 12.922 24.9789 12.4945 24.9824C12.0669 24.9859 11.6551 24.8214 11.3477 24.5242L0.476881 13.6534C0.171519 13.3476 0 12.9332 0 12.5011C0 12.069 0.171519 11.6545 0.476881 11.3488L11.3477 0.477968C11.4991 0.32644 11.6789 0.206235 11.8768 0.124224C12.0747 0.0422118 12.2869 0 12.5011 0C12.7153 0 12.9274 0.0422118 13.1253 0.124224C13.3232 0.206235 13.503 0.32644 13.6545 0.477968H13.6523Z" fill="#4481EB"/>
</svg>
