<svg width="33" height="39" viewBox="0 0 33 39" fill="none" xmlns="http://www.w3.org/2000/svg">
<g filter="url(#filter0_d_388_600)">
<path d="M26.2222 8.33333C25.8539 8.33333 25.5006 8.47966 25.2401 8.74013C24.9797 9.0006 24.8333 9.35387 24.8333 9.72222V25.2653C24.7935 25.9676 24.4777 26.6258 23.9549 27.0964C23.432 27.567 22.7443 27.8119 22.0417 27.7778H10.9583C10.2557 27.8119 9.56803 27.567 9.04515 27.0964C8.52226 26.6258 8.20651 25.9676 8.16667 25.2653V9.72222C8.16667 9.35387 8.02034 9.0006 7.75987 8.74013C7.4994 8.47966 7.14613 8.33333 6.77778 8.33333C6.40942 8.33333 6.05615 8.47966 5.79569 8.74013C5.53522 9.0006 5.38889 9.35387 5.38889 9.72222V25.2653C5.42853 26.7045 6.03692 28.0693 7.08081 29.0609C8.12469 30.0525 9.51899 30.5899 10.9583 30.5556H22.0417C23.481 30.5899 24.8753 30.0525 25.9192 29.0609C26.9631 28.0693 27.5715 26.7045 27.6111 25.2653V9.72222C27.6111 9.35387 27.4648 9.0006 27.2043 8.74013C26.9438 8.47966 26.5906 8.33333 26.2222 8.33333ZM27.6111 4.16667H22.0556V1.38889C22.0556 1.02053 21.9092 0.667263 21.6488 0.406796C21.3883 0.146329 21.035 0 20.6667 0H12.3333C11.965 0 11.6117 0.146329 11.3512 0.406796C11.0908 0.667263 10.9444 1.02053 10.9444 1.38889V4.16667H5.38889C5.02053 4.16667 4.66726 4.313 4.4068 4.57346C4.14633 4.83393 4 5.1872 4 5.55556C4 5.92391 4.14633 6.27718 4.4068 6.53765C4.66726 6.79812 5.02053 6.94445 5.38889 6.94445H27.6111C27.9795 6.94445 28.3327 6.79812 28.5932 6.53765C28.8537 6.27718 29 5.92391 29 5.55556C29 5.1872 28.8537 4.83393 28.5932 4.57346C28.3327 4.313 27.9795 4.16667 27.6111 4.16667ZM13.7222 4.16667V2.77778H19.2778V4.16667H13.7222Z" fill="#E70000"/>
<path d="M15.1111 22.2224V12.5002C15.1111 12.1319 14.9648 11.7786 14.7043 11.5181C14.4438 11.2577 14.0906 11.1113 13.7222 11.1113C13.3538 11.1113 13.0006 11.2577 12.7401 11.5181C12.4796 11.7786 12.3333 12.1319 12.3333 12.5002V22.2224C12.3333 22.5908 12.4796 22.9441 12.7401 23.2045C13.0006 23.465 13.3538 23.6113 13.7222 23.6113C14.0906 23.6113 14.4438 23.465 14.7043 23.2045C14.9648 22.9441 15.1111 22.5908 15.1111 22.2224ZM20.6666 22.2224V12.5002C20.6666 12.1319 20.5203 11.7786 20.2598 11.5181C19.9994 11.2577 19.6461 11.1113 19.2778 11.1113C18.9094 11.1113 18.5561 11.2577 18.2957 11.5181C18.0352 11.7786 17.8889 12.1319 17.8889 12.5002V22.2224C17.8889 22.5908 18.0352 22.9441 18.2957 23.2045C18.5561 23.465 18.9094 23.6113 19.2778 23.6113C19.6461 23.6113 19.9994 23.465 20.2598 23.2045C20.5203 22.9441 20.6666 22.5908 20.6666 22.2224Z" fill="#E70000"/>
</g>
<defs>
<filter id="filter0_d_388_600" x="0" y="0" width="33" height="38.5571" filterUnits="userSpaceOnUse" color-interpolation-filters="sRGB">
<feFlood flood-opacity="0" result="BackgroundImageFix"/>
<feColorMatrix in="SourceAlpha" type="matrix" values="0 0 0 0 0 0 0 0 0 0 0 0 0 0 0 0 0 0 127 0" result="hardAlpha"/>
<feOffset dy="4"/>
<feGaussianBlur stdDeviation="2"/>
<feComposite in2="hardAlpha" operator="out"/>
<feColorMatrix type="matrix" values="0 0 0 0 0.605 0 0 0 0 0.605 0 0 0 0 0.605 0 0 0 0.25 0"/>
<feBlend mode="normal" in2="BackgroundImageFix" result="effect1_dropShadow_388_600"/>
<feBlend mode="normal" in="SourceGraphic" in2="effect1_dropShadow_388_600" result="shape"/>
</filter>
</defs>
</svg>
