<svg width="24" height="23" viewBox="0 0 24 23" fill="none" xmlns="http://www.w3.org/2000/svg">
<path d="M14.2186 3.84407L1.55045 16.5132C1.48666 16.5772 1.44119 16.6571 1.4188 16.7446L0.0146075 22.3806C-0.00604463 22.4642 -0.004779 22.5517 0.0182821 22.6348C0.0413432 22.7178 0.0854205 22.7934 0.146256 22.8544C0.2397 22.9476 0.366218 22.9999 0.498146 23C0.538844 23 0.579386 22.995 0.618855 22.985L6.25484 21.5807C6.34247 21.5586 6.42246 21.5132 6.48625 21.4492L19.1556 8.78094L14.2186 3.84407ZM22.294 2.11664L20.8838 0.706514C19.9414 -0.235972 18.2987 -0.235037 17.3573 0.706514L15.6299 2.43394L20.5666 7.37063L22.294 5.64325C22.7648 5.17266 23.0241 4.54626 23.0241 3.88006C23.0241 3.21387 22.7648 2.58747 22.294 2.11664Z" fill="#ABABAB"/>
</svg>
