<svg width="36" height="51" viewBox="0 0 36 51" fill="none" xmlns="http://www.w3.org/2000/svg">
<path d="M6.72617 5.11768C3.22305 5.11768 0.544189 8.0026 0.544189 11.2997V43.8581C0.544189 47.3612 3.22305 50.04 6.72617 50.04H29.3934C32.8965 50.04 35.5754 47.1551 35.5754 43.8581V11.2997C35.5754 7.79653 32.8965 5.11768 29.3934 5.11768H25.066V8.6208C25.066 12.536 21.975 15.627 18.0598 15.627C14.1445 15.627 11.0535 12.536 11.0535 8.6208V5.11768H6.72617ZM18.0598 22.2211C20.5326 22.2211 22.5932 24.2818 22.5932 26.7546C22.5932 29.2274 20.5326 31.288 18.0598 31.288C15.587 31.288 13.5263 29.2274 13.5263 26.7546C13.5263 24.2818 15.587 22.2211 18.0598 22.2211ZM12.7021 34.7912C13.1142 34.379 13.7324 34.5851 14.1445 34.7912C15.3809 35.4094 16.6173 35.6154 18.0598 35.6154C19.5022 35.6154 20.9447 35.2033 22.1811 34.7912C22.5932 34.5851 23.2114 34.5851 23.6236 34.7912C24.86 35.6154 25.6842 36.6458 26.5085 37.8822C27.5388 39.7367 26.3024 42.2095 24.0357 42.2095H12.2899C10.0232 42.2095 8.78682 39.9428 9.81715 38.0882C10.4354 36.6458 11.4657 35.6154 12.7021 34.7912Z" fill="#CECECE"/>
<path d="M21.1507 8.62055V3.67497C21.1507 2.02645 19.7083 0.583984 18.0598 0.583984C16.4112 0.583984 14.9688 2.02645 14.9688 3.67497V8.62055C14.9688 10.2691 16.4112 11.7115 18.0598 11.7115C19.7083 11.7115 21.1507 10.2691 21.1507 8.62055Z" fill="#CECECE"/>
</svg>
