<svg width="43" height="43" viewBox="0 0 43 43" fill="none" xmlns="http://www.w3.org/2000/svg">
<path d="M41.8453 18.7029C41.8439 18.702 41.8429 18.7006 41.8419 18.6996L24.2996 1.15982C23.5518 0.411691 22.5576 0 21.5003 0C20.4428 0 19.4487 0.411691 18.7006 1.15974L1.16736 18.6907C1.16148 18.6966 1.15526 18.7028 1.14972 18.7088C-0.385839 20.2529 -0.383151 22.7583 1.15728 24.2986C1.86097 25.0026 2.7901 25.4101 3.78399 25.4531C3.82464 25.457 3.86538 25.4589 3.90636 25.4589H4.60518V38.367C4.60518 40.9216 6.68401 42.9999 9.2389 42.9999H16.102C16.7979 42.9999 17.3619 42.4356 17.3619 41.7401V31.6201C17.3619 30.4545 18.3105 29.5064 19.4762 29.5064H23.5242C24.6901 29.5064 25.6382 30.4546 25.6382 31.6201V41.7402C25.6382 42.4357 26.2022 43 26.8981 43H33.7612C36.3164 43 38.3949 40.9217 38.3949 38.3671V25.459H39.0433C40.1004 25.459 41.0945 25.0472 41.8429 24.2989C43.385 22.7564 43.3856 20.2464 41.8452 18.7028L41.8453 18.7029ZM40.061 22.5176C39.9277 22.6517 39.7691 22.7581 39.5944 22.8305C39.4197 22.9029 39.2324 22.94 39.0433 22.9396H37.1349C36.4391 22.9396 35.875 23.5034 35.875 24.1993V38.3671C35.875 39.5324 34.9269 40.4805 33.7611 40.4805H28.158V31.6201C28.158 29.0655 26.0794 26.9869 23.5242 26.9869H19.4763C16.9211 26.9869 14.8422 29.0655 14.8422 31.6201V40.4805H9.23907C8.07359 40.4805 7.12505 39.5323 7.12505 38.3671V24.1993C7.12505 23.5034 6.56104 22.9395 5.86516 22.9395H3.98969C3.97003 22.9381 3.95034 22.9372 3.93064 22.9368C3.55527 22.9303 3.20326 22.7813 2.93952 22.5172C2.37845 21.9562 2.37845 21.0433 2.93952 20.4819C2.93977 20.4819 2.93977 20.4816 2.94011 20.4813L2.94112 20.4803L20.4828 2.94113C20.616 2.80701 20.7746 2.70068 20.9492 2.62831C21.1239 2.55594 21.3112 2.51896 21.5003 2.51953C21.8844 2.51953 22.2457 2.66911 22.5177 2.94113L40.0554 20.4767L40.0636 20.4846C40.6217 21.0467 40.6207 21.9577 40.061 22.5176Z" fill="#B8B8B8"/>
</svg>
