<svg width="34" height="40" viewBox="0 0 34 40" fill="none" xmlns="http://www.w3.org/2000/svg">
<path d="M25.1855 38.125C25.1855 38.6223 24.9927 39.0992 24.6495 39.4508C24.3062 39.8025 23.8407 40 23.3553 40H6.10091C4.4834 39.9981 2.93267 39.3391 1.78892 38.1674C0.645172 36.9957 0.00181663 35.407 0 33.75V6.25C0.00181663 4.59297 0.645172 3.00434 1.78892 1.83264C2.93267 0.660939 4.4834 0.00186102 6.10091 0L23.3553 0C23.8407 0 24.3062 0.197544 24.6495 0.549175C24.9927 0.900806 25.1855 1.37772 25.1855 1.875C25.1855 2.37228 24.9927 2.84919 24.6495 3.20083C24.3062 3.55246 23.8407 3.75 23.3553 3.75H6.10091C5.4539 3.75072 4.83359 4.01435 4.37609 4.48303C3.91859 4.95172 3.66125 5.58718 3.66054 6.25V33.75C3.66123 34.4128 3.91856 35.0483 4.37607 35.517C4.83358 35.9857 5.45389 36.2493 6.10091 36.25H23.3553C23.8407 36.25 24.3062 36.4475 24.6495 36.7992C24.9927 37.1508 25.1855 37.6277 25.1855 38.125ZM33.4639 18.6742L24.7662 9.76391C24.597 9.58661 24.3951 9.44547 24.1722 9.34866C23.9493 9.25185 23.7099 9.20129 23.4679 9.19992C23.2258 9.19855 22.9858 9.24638 22.7619 9.34066C22.538 9.43493 22.3346 9.57377 22.1634 9.74914C21.9923 9.92451 21.8568 10.1329 21.7648 10.3623C21.6728 10.5917 21.6261 10.8375 21.6275 11.0855C21.6289 11.3335 21.6782 11.5787 21.7728 11.807C21.8673 12.0353 22.0051 12.2422 22.1782 12.4155L27.7511 18.125H13.3426C12.8572 18.125 12.3917 18.3225 12.0484 18.6742C11.7052 19.0258 11.5123 19.5027 11.5123 20C11.5123 20.4973 11.7052 20.9742 12.0484 21.3258C12.3917 21.6775 12.8572 21.875 13.3426 21.875H27.751L22.1779 27.5844C22.0071 27.7583 21.8716 27.965 21.779 28.1927C21.6864 28.4204 21.6386 28.6646 21.6383 28.9113C21.6379 29.1579 21.6851 29.4022 21.7771 29.6302C21.8691 29.8581 22.0041 30.0652 22.1743 30.2396C22.3446 30.414 22.5468 30.5523 22.7693 30.6466C22.9918 30.7408 23.2303 30.7891 23.471 30.7888C23.7118 30.7885 23.9501 30.7395 24.1724 30.6446C24.3947 30.5498 24.5965 30.4109 24.7662 30.236L33.4639 21.3259C33.8072 20.9742 34 20.4973 34 20C34 19.5028 33.8072 19.0258 33.4639 18.6742Z" fill="#4481EB"/>
</svg>
