<svg width="43" height="43" viewBox="0 0 43 43" fill="none" xmlns="http://www.w3.org/2000/svg">
<path fill-rule="evenodd" clip-rule="evenodd" d="M32.1076 0.424958C30.3908 0.279297 28.2528 0.279297 25.5286 0.279297H17.4453C14.7211 0.279297 12.5831 0.279297 10.8663 0.424958C9.11774 0.576862 7.67317 0.884832 6.36571 1.58401C4.21573 2.73117 2.46775 4.56171 1.37233 6.81325C0.704688 8.18247 0.410609 9.69526 0.267543 11.5264C0.126465 13.3243 0.126465 15.5633 0.126465 18.4162V27.2849C0.126465 28.5206 0.358877 29.7442 0.810431 30.8859C1.26199 32.0275 1.92384 33.0648 2.7582 33.9386C4.44328 35.7033 6.72872 36.6946 9.11178 36.6946H10.306C10.8007 36.6946 11.1385 37.2169 10.9557 37.6976C9.59065 41.2684 13.519 44.4979 16.5075 42.2631L21.6956 38.3822L21.7949 38.3094C23.203 37.2701 24.8809 36.7067 26.6035 36.6946H28.1057C31.1836 36.6946 33.0594 36.6946 34.6371 36.2119C36.4747 35.6477 38.1474 34.6088 39.5015 33.1907C40.8556 31.7726 41.8477 30.0209 42.3864 28.0965C42.8474 26.4442 42.8474 24.4799 42.8474 21.2566V18.4162C42.8474 15.5633 42.8474 13.3243 42.7083 11.5264C42.5633 9.69526 42.2692 8.18247 41.6016 6.81325C40.5062 4.56171 38.7582 2.73117 36.6082 1.58401C35.3007 0.884832 33.8562 0.574781 32.1076 0.424958ZM7.71888 4.36614C8.53554 3.92915 9.54495 3.67321 11.1087 3.54003C12.6904 3.40477 14.7052 3.40269 17.5129 3.40269H25.461C28.2687 3.40269 30.2835 3.40269 31.8652 3.54003C33.429 3.67321 34.4384 3.93124 35.257 4.36614C36.846 5.2145 38.1377 6.56793 38.9469 8.23241C39.3642 9.08765 39.6086 10.1447 39.7358 11.7824C39.8649 13.4388 39.8669 15.5488 39.8669 18.489V20.9528C39.8669 24.5777 39.851 26.0551 39.5251 27.2204C39.1268 28.6424 38.3937 29.9369 37.3931 30.9847C36.3925 32.0326 35.1564 32.8004 33.7985 33.2175C32.6858 33.5588 31.275 33.5754 27.8136 33.5754H26.5837C24.2524 33.5914 21.9817 34.3538 20.0762 35.7603L14.7768 39.7244C14.2085 40.1489 13.4634 39.5371 13.7237 38.8588C13.9472 38.274 14.0304 37.6408 13.966 37.0146C13.9016 36.3884 13.6915 35.7883 13.3542 35.2669C13.0169 34.7454 12.5626 34.3185 12.0312 34.0237C11.4998 33.7288 10.9074 33.5749 10.306 33.5754H9.11178C7.51921 33.5754 5.99187 32.9129 4.86576 31.7336C3.73964 30.5543 3.107 28.9548 3.107 27.287V18.487C3.107 15.5467 3.107 13.4367 3.23814 11.7803C3.36531 10.1427 3.6117 9.08557 4.02699 8.23033C4.83675 6.56553 6.12917 5.21414 7.71888 4.36614Z" fill="#B8B8B8"/>
<path d="M15.5259 18.4871C15.5259 19.039 15.3166 19.5683 14.9439 19.9585C14.5713 20.3488 14.0659 20.568 13.5389 20.568C13.0119 20.568 12.5065 20.3488 12.1339 19.9585C11.7612 19.5683 11.5519 19.039 11.5519 18.4871C11.5519 17.9352 11.7612 17.406 12.1339 17.0157C12.5065 16.6255 13.0119 16.4062 13.5389 16.4062C14.0659 16.4062 14.5713 16.6255 14.9439 17.0157C15.3166 17.406 15.5259 17.9352 15.5259 18.4871ZM23.474 18.4871C23.474 19.039 23.2647 19.5683 22.892 19.9585C22.5194 20.3488 22.014 20.568 21.487 20.568C20.96 20.568 20.4546 20.3488 20.0819 19.9585C19.7093 19.5683 19.5 19.039 19.5 18.4871C19.5 17.9352 19.7093 17.406 20.0819 17.0157C20.4546 16.6255 20.96 16.4062 21.487 16.4062C22.014 16.4062 22.5194 16.6255 22.892 17.0157C23.2647 17.406 23.474 17.9352 23.474 18.4871ZM31.4221 18.4871C31.4221 19.039 31.2127 19.5683 30.8401 19.9585C30.4675 20.3488 29.9621 20.568 29.4351 20.568C28.9081 20.568 28.4027 20.3488 28.03 19.9585C27.6574 19.5683 27.448 19.039 27.448 18.4871C27.448 17.9352 27.6574 17.406 28.03 17.0157C28.4027 16.6255 28.9081 16.4062 29.4351 16.4062C29.9621 16.4062 30.4675 16.6255 30.8401 17.0157C31.2127 17.406 31.4221 17.9352 31.4221 18.4871Z" fill="#B8B8B8"/>
</svg>
