<svg width="19" height="19" viewBox="0 0 19 19" fill="none" xmlns="http://www.w3.org/2000/svg">
<path d="M9.5 5C7.025 5 5 7.025 5 9.5C5 11.975 7.025 14 9.5 14C11.975 14 14 11.975 14 9.5C14 7.025 11.975 5 9.5 5Z" fill="#FFF400"/>
<path d="M9.5 1.1875C14.1313 1.1875 17.8125 4.86875 17.8125 9.5C17.8125 14.1313 14.1313 17.8125 9.5 17.8125C4.86875 17.8125 1.1875 14.1313 1.1875 9.5C1.1875 4.86875 4.86875 1.1875 9.5 1.1875ZM9.5 0C4.275 0 0 4.275 0 9.5C0 14.725 4.275 19 9.5 19C14.725 19 19 14.725 19 9.5C19 4.275 14.725 0 9.5 0Z" fill="#FFF400"/>
</svg>
