<svg width="36" height="39" viewBox="0 0 36 39" fill="none" xmlns="http://www.w3.org/2000/svg">
<path d="M6.8876 30.4039V36.5161C6.8876 37.8854 5.77317 39 4.40315 39H2.48445C1.1146 39 0 37.8853 0 36.5161V30.4039C0 29.0339 1.1146 27.9201 2.48445 27.9201H4.40323C5.77317 27.9201 6.8876 29.0339 6.8876 30.4039ZM3.4438 20.8198C4.81625 20.8198 5.93285 19.7035 5.93285 18.3308C5.93285 17.9269 5.8351 17.5441 5.66295 17.2059L11.5022 11.8558C11.8961 12.1024 12.3516 12.2329 12.8164 12.2324C13.7155 12.2324 14.5047 11.7527 14.9423 11.0365L19.7002 12.3747L19.7 12.3786C19.7 13.7513 20.8166 14.8676 22.189 14.8676C23.5613 14.8676 24.6779 13.7513 24.6779 12.3786C24.6783 11.9281 24.5557 11.486 24.3232 11.1L30.3993 4.68854C30.757 4.87908 31.1562 4.97848 31.5615 4.97794C32.934 4.97794 34.0506 3.86175 34.0506 2.48897C34.0506 1.11661 32.934 0 31.5615 0C30.1891 0 29.0727 1.11661 29.0727 2.48897C29.0722 2.93962 29.1948 3.38183 29.4272 3.76794L23.3514 10.1782C22.9933 9.98848 22.5942 9.88951 22.189 9.89002C21.2898 9.89002 20.5004 10.3693 20.0631 11.0859L15.3052 9.74766L15.3053 9.7433C15.3053 8.3706 14.1887 7.25433 12.8163 7.25433C11.444 7.25433 10.3274 8.3706 10.3274 9.7433C10.3274 10.1485 10.4251 10.5301 10.5974 10.8689L4.758 16.2183C4.36389 15.9721 3.9085 15.8416 3.4438 15.8418C2.07135 15.8418 0.954914 16.9584 0.954914 18.3308C0.954914 19.7035 2.07135 20.8198 3.4438 20.8198ZM23.1483 23.1354H21.2294C19.8595 23.1354 18.7451 24.2505 18.7451 25.6204V36.5161C18.7451 37.8853 19.8595 38.9999 21.2294 38.9999H23.1483C24.5182 38.9999 25.6328 37.8852 25.6328 36.5161V25.6205C25.6328 24.2505 24.5182 23.1354 23.1483 23.1354ZM13.7759 20.2397H11.8569C10.4871 20.2397 9.37255 21.3548 9.37255 22.7248V36.5161C9.37255 37.8854 10.4871 39 11.8569 39H13.7759C15.1457 39 16.2602 37.8853 16.2602 36.5161V22.7248C16.2601 21.3548 15.1456 20.2397 13.7759 20.2397ZM32.5211 13.0642H30.6021C29.2323 13.0642 28.1178 14.1788 28.1178 15.5489V36.5161C28.1178 37.8854 29.2323 39 30.6021 39H32.5211C33.8909 39 35.0053 37.8853 35.0053 36.5161V15.5489C35.0053 14.1788 33.8908 13.0642 32.5211 13.0642Z" fill="#4481EB"/>
</svg>
