<svg width="43" height="43" viewBox="0 0 43 43" fill="none" xmlns="http://www.w3.org/2000/svg">
<path d="M22.7618 40.0085H3.96457C1.84887 40.0085 0.126465 38.2861 0.126465 36.1704V6.55051C0.126465 4.4348 1.84887 2.7124 3.96457 2.7124H36.2969C38.4126 2.7124 40.135 4.4348 40.135 6.55051V22.6353C40.135 22.9051 40.0278 23.1638 39.8371 23.3545C39.6463 23.5453 39.3876 23.6525 39.1178 23.6525C38.8481 23.6525 38.5893 23.5453 38.3986 23.3545C38.2078 23.1638 38.1007 22.9051 38.1007 22.6353V6.55051C38.1007 5.5564 37.291 4.74673 36.2969 4.74673H3.96457C2.97046 4.74673 2.1608 5.5564 2.1608 6.55051V36.1704C2.1608 37.1645 2.97046 37.9742 3.96457 37.9742H22.7618C23.0316 37.9742 23.2903 38.0813 23.481 38.2721C23.6718 38.4628 23.779 38.7216 23.779 38.9913C23.779 39.2611 23.6718 39.5198 23.481 39.7106C23.2903 39.9013 23.0316 40.0085 22.7618 40.0085Z" fill="#B8B8B8"/>
<path d="M39.1178 12.8841H1.14363C0.873862 12.8841 0.615141 12.7769 0.424386 12.5862C0.23363 12.3954 0.126465 12.1367 0.126465 11.8669C0.126465 11.5972 0.23363 11.3384 0.424386 11.1477C0.615141 10.9569 0.873862 10.8498 1.14363 10.8498H39.1178C39.3876 10.8498 39.6463 10.9569 39.8371 11.1477C40.0278 11.3384 40.135 11.5972 40.135 11.8669C40.135 12.1367 40.0278 12.3954 39.8371 12.5862C39.6463 12.7769 39.3876 12.8841 39.1178 12.8841ZM20.1307 7.45922C19.861 7.45922 19.6022 7.35205 19.4115 7.1613C19.2207 6.97054 19.1136 6.71182 19.1136 6.44205V1.01717C19.1136 0.747397 19.2207 0.488677 19.4115 0.297921C19.6022 0.107165 19.861 0 20.1307 0C20.4005 0 20.6592 0.107165 20.85 0.297921C21.0407 0.488677 21.1479 0.747397 21.1479 1.01717V6.44205C21.1479 6.71182 21.0407 6.97054 20.85 7.1613C20.6592 7.35205 20.4005 7.45922 20.1307 7.45922ZM6.56852 7.45922C6.29875 7.45922 6.04003 7.35205 5.84927 7.1613C5.65852 6.97054 5.55135 6.71182 5.55135 6.44205V1.01717C5.55135 0.747397 5.65852 0.488677 5.84927 0.297921C6.04003 0.107165 6.29875 0 6.56852 0C6.83829 0 7.09701 0.107165 7.28776 0.297921C7.47852 0.488677 7.58568 0.747397 7.58568 1.01717V6.44205C7.58568 6.71182 7.47852 6.97054 7.28776 7.1613C7.09701 7.35205 6.83829 7.45922 6.56852 7.45922ZM33.6929 7.45922C33.4232 7.45922 33.1645 7.35205 32.9737 7.1613C32.7829 6.97054 32.6758 6.71182 32.6758 6.44205V1.01717C32.6758 0.747397 32.7829 0.488677 32.9737 0.297921C33.1645 0.107165 33.4232 0 33.6929 0C33.9627 0 34.2214 0.107165 34.4122 0.297921C34.6029 0.488677 34.7101 0.747397 34.7101 1.01717V6.44205C34.7101 6.71182 34.6029 6.97054 34.4122 7.1613C34.2214 7.35205 33.9627 7.45922 33.6929 7.45922ZM11.9934 23.7339H6.56852C6.29875 23.7339 6.04003 23.6267 5.84927 23.436C5.65852 23.2452 5.55135 22.9865 5.55135 22.7167V17.2918C5.55135 17.0221 5.65852 16.7633 5.84927 16.5726C6.04003 16.3818 6.29875 16.2747 6.56852 16.2747H11.9934C12.2632 16.2747 12.5219 16.3818 12.7126 16.5726C12.9034 16.7633 13.0106 17.0221 13.0106 17.2918V22.7167C13.0106 22.9865 12.9034 23.2452 12.7126 23.436C12.5219 23.6267 12.2632 23.7339 11.9934 23.7339ZM7.58568 21.6995H10.9762V18.309H7.58568V21.6995ZM22.8432 23.7339H17.4183C17.1485 23.7339 16.8898 23.6267 16.699 23.436C16.5083 23.2452 16.4011 22.9865 16.4011 22.7167V17.2918C16.4011 17.0221 16.5083 16.7633 16.699 16.5726C16.8898 16.3818 17.1485 16.2747 17.4183 16.2747H22.8432C23.1129 16.2747 23.3717 16.3818 23.5624 16.5726C23.7532 16.7633 23.8603 17.0221 23.8603 17.2918V22.7167C23.8603 22.9865 23.7532 23.2452 23.5624 23.436C23.3717 23.6267 23.1129 23.7339 22.8432 23.7339ZM18.4355 21.6995H21.826V18.309H18.4355V21.6995ZM11.9934 34.5836H6.56852C6.29875 34.5836 6.04003 34.4765 5.84927 34.2857C5.65852 34.095 5.55135 33.8362 5.55135 33.5665V28.1416C5.55135 27.8718 5.65852 27.6131 5.84927 27.4223C6.04003 27.2316 6.29875 27.1244 6.56852 27.1244H11.9934C12.2632 27.1244 12.5219 27.2316 12.7126 27.4223C12.9034 27.6131 13.0106 27.8718 13.0106 28.1416V33.5665C13.0106 33.8362 12.9034 34.095 12.7126 34.2857C12.5219 34.4765 12.2632 34.5836 11.9934 34.5836ZM7.58568 32.5493H10.9762V29.1588H7.58568V32.5493ZM33.6929 42.721C28.6451 42.721 24.5384 38.6143 24.5384 33.5665C24.5384 28.5186 28.6451 24.412 33.6929 24.412C38.7408 24.412 42.8474 28.5186 42.8474 33.5665C42.8474 38.6143 38.7408 42.721 33.6929 42.721ZM33.6929 26.4463C29.768 26.4463 26.5728 29.6402 26.5728 33.5665C26.5728 37.4927 29.768 40.6866 33.6929 40.6866C37.6178 40.6866 40.8131 37.4927 40.8131 33.5665C40.8131 29.6402 37.6178 26.4463 33.6929 26.4463Z" fill="#B8B8B8"/>
<path d="M36.4054 34.5835H33.6929C33.4231 34.5835 33.1644 34.4763 32.9737 34.2855C32.7829 34.0948 32.6758 33.8361 32.6758 33.5663V29.4976C32.6758 29.2279 32.7829 28.9691 32.9737 28.7784C33.1644 28.5876 33.4231 28.4805 33.6929 28.4805C33.9627 28.4805 34.2214 28.5876 34.4122 28.7784C34.6029 28.9691 34.7101 29.2279 34.7101 29.4976V32.5491H36.4054C36.6751 32.5491 36.9338 32.6563 37.1246 32.8471C37.3154 33.0378 37.4225 33.2965 37.4225 33.5663C37.4225 33.8361 37.3154 34.0948 37.1246 34.2855C36.9338 34.4763 36.6751 34.5835 36.4054 34.5835Z" fill="#B8B8B8"/>
</svg>
