<svg width="43" height="43" viewBox="0 0 43 43" fill="none" xmlns="http://www.w3.org/2000/svg">
<path d="M24.7237 24.5705C23.5801 25.714 22.063 26.3429 20.4452 26.3429C18.8273 26.3429 17.3102 25.714 16.1667 24.5705C15.0231 23.4283 14.3956 21.9098 14.3956 20.2933C14.3956 18.6768 15.0245 17.1583 16.1667 16.0148C17.3102 14.8713 18.8273 14.2424 20.4452 14.2424C22.063 14.2424 23.5801 14.8713 24.7237 16.0148C25.8672 17.157 26.4947 18.6768 26.4947 20.2933C26.4947 21.9098 25.8672 23.4283 24.7237 24.5705ZM43 21.5C43 33.3546 33.3546 43 21.5 43C9.64544 43 0 33.3546 0 21.5C0 9.64544 9.64544 0 21.5 0C33.3546 0 43 9.64409 43 21.5ZM31.0662 28.982L27.5106 25.417C28.5989 23.9301 29.1845 22.1347 29.1822 20.292C29.1822 17.9579 28.2738 15.7635 26.6237 14.1134C24.9736 12.4633 22.7806 11.5536 20.4452 11.5536C18.1097 11.5536 15.9167 12.4633 14.2666 14.1134C12.6165 15.7635 11.7081 17.9579 11.7081 20.292C11.7081 22.6261 12.6178 24.8204 14.2666 26.4692C15.076 27.2833 16.0388 27.9287 17.0994 28.3681C18.16 28.8075 19.2972 29.0322 20.4452 29.029C22.3078 29.0307 24.1214 28.4323 25.6173 27.3225L29.1634 30.878C29.288 31.0035 29.4362 31.1031 29.5995 31.1709C29.7628 31.2387 29.938 31.2734 30.1148 31.2731C30.3801 31.2728 30.6393 31.1939 30.8599 31.0465C31.0804 30.8991 31.2524 30.6897 31.3542 30.4447C31.4559 30.1997 31.4828 29.93 31.4316 29.6697C31.3803 29.4094 31.2532 29.1701 31.0662 28.982Z" fill="#4481EB"/>
</svg>
