<svg width="43" height="32" viewBox="0 0 43 32" fill="none" xmlns="http://www.w3.org/2000/svg">
<path d="M42.8474 10.4495C42.8485 10.6332 42.8126 10.8153 42.7417 10.9853C42.6708 11.1553 42.5664 11.31 42.4344 11.4404L33.8903 19.8137C33.7572 19.943 33.5994 20.0453 33.4259 20.1148C33.2524 20.1842 33.0666 20.2194 32.8792 20.2184C32.6941 20.2206 32.5102 20.1874 32.3381 20.1207C32.0758 20.0151 31.8516 19.8351 31.6943 19.6039C31.537 19.3727 31.4537 19.1007 31.4552 18.8228V14.6362H18.6389C18.2612 14.6362 17.899 14.4891 17.6319 14.2274C17.3649 13.9657 17.2149 13.6107 17.2149 13.2406V7.65842C17.2149 7.2883 17.3649 6.93334 17.6319 6.67162C17.899 6.4099 18.2612 6.26287 18.6389 6.26287H31.4552V2.07622C31.4563 1.80022 31.541 1.53076 31.6985 1.30191C31.8559 1.07307 32.0791 0.895109 32.3397 0.790547C32.6003 0.685985 32.8868 0.659512 33.1628 0.714476C33.4388 0.76944 33.6919 0.903372 33.8903 1.09934L42.4344 9.47264C42.6975 9.73257 42.8458 10.0834 42.8474 10.4495ZM24.335 17.4273H11.5187V13.2406C11.5173 12.9651 11.4327 12.6962 11.2756 12.4677C11.1185 12.2392 10.8959 12.0614 10.6358 11.9567C10.3765 11.8498 10.0907 11.8206 9.81443 11.8728C9.53819 11.925 9.28389 12.0561 9.08364 12.2498L0.539457 20.6231C0.407476 20.7535 0.303059 20.9081 0.232193 21.0782C0.161326 21.2482 0.125405 21.4303 0.126489 21.6139C0.125405 21.7976 0.161326 21.9797 0.232193 22.1497C0.303059 22.3197 0.407476 22.4744 0.539457 22.6048L9.08364 30.9781C9.2167 31.1074 9.37451 31.2097 9.54801 31.2792C9.72151 31.3486 9.90729 31.3838 10.0947 31.3828C10.2815 31.3875 10.4668 31.3493 10.6358 31.2711C10.8959 31.1664 11.1185 30.9886 11.2756 30.7602C11.4327 30.5317 11.5173 30.2627 11.5187 29.9872V25.8006H24.335C24.7127 25.8006 25.0749 25.6535 25.342 25.3918C25.609 25.1301 25.759 24.7751 25.759 24.405V18.8228C25.759 18.4527 25.609 18.0977 25.342 17.836C25.0749 17.5743 24.7127 17.4273 24.335 17.4273Z" fill="#CECECE"/>
</svg>
