<svg width="53" height="34" viewBox="0 0 53 34" fill="none" xmlns="http://www.w3.org/2000/svg">
<path d="M45.3886 14.8878C46.9254 13.8079 47.9431 12.0115 47.9431 9.98658C47.9431 6.67407 45.264 3.99499 41.9515 3.99499C38.639 3.99499 35.9599 6.67407 35.9599 9.98658C35.9599 12.0115 36.9672 13.8079 38.5144 14.8878C37.1956 15.3447 35.9911 16.0508 34.9734 16.9646C33.5716 15.7705 31.9205 14.8567 30.1137 14.3167C32.3047 12.9876 33.7793 10.5681 33.7793 7.81631C33.7793 3.62116 30.3837 0.225586 26.1885 0.225586C21.9934 0.225586 18.5978 3.63155 18.5978 7.81631C18.5978 10.5681 20.0619 12.9876 22.2634 14.3167C20.4773 14.8567 18.847 15.7601 17.4556 16.9335C16.4379 16.0405 15.2541 15.3447 13.9561 14.8982C15.493 13.8183 16.5106 12.0218 16.5106 9.99696C16.5106 6.68445 13.8315 4.00537 10.519 4.00537C7.20652 4.00537 4.52744 6.68445 4.52744 9.99696C4.52744 12.0218 5.53469 13.8183 7.08191 14.8982C2.95945 16.3208 0 20.2356 0 24.8357V25.5211C0 25.5419 0.0207681 25.5626 0.0415361 25.5626H12.7412C12.6685 26.1337 12.627 26.7256 12.627 27.3175V28.0236C12.627 31.0765 15.0984 33.5479 18.1513 33.5479H34.2465C37.2994 33.5479 39.7708 31.0765 39.7708 28.0236V27.3175C39.7708 26.7256 39.7293 26.1337 39.6566 25.5626H52.4394C52.4601 25.5626 52.4809 25.5419 52.4809 25.5211V24.8357C52.4601 20.2252 49.5111 16.3105 45.3886 14.8878ZM37.6213 9.97619C37.6213 7.58786 39.5632 5.64605 41.9515 5.64605C44.3398 5.64605 46.2816 7.58786 46.2816 9.97619C46.2816 12.3334 44.3813 14.2544 42.0346 14.3063H41.8684C39.5112 14.2648 37.6213 12.3437 37.6213 9.97619ZM20.2385 7.81631C20.2385 4.54534 22.8968 1.88703 26.1678 1.88703C29.4387 1.88703 32.097 4.54534 32.097 7.81631C32.097 10.9731 29.6153 13.5587 26.5104 13.7352H25.8251C22.7203 13.5587 20.2385 10.9731 20.2385 7.81631ZM6.15773 9.97619C6.15773 7.58786 8.09954 5.64605 10.4879 5.64605C12.8762 5.64605 14.818 7.58786 14.818 9.97619C14.818 12.3334 12.9177 14.2544 10.5709 14.3063H10.4048C8.05801 14.2648 6.15773 12.3437 6.15773 9.97619ZM13.032 23.8908H1.68221C2.14949 19.4672 5.88775 15.9989 10.4256 15.9678H10.5502C12.7101 15.9782 14.683 16.7777 16.2095 18.0757C14.7142 19.6956 13.6031 21.6894 13.032 23.8908ZM38.0886 28.0236C38.0886 30.1524 36.3545 31.8865 34.2258 31.8865H18.1305C16.0018 31.8865 14.2677 30.1524 14.2677 28.0236V27.3175C14.2677 20.869 19.4181 15.594 25.8251 15.407C25.9393 15.4174 26.0639 15.4174 26.1781 15.4174C26.2924 15.4174 26.417 15.4174 26.5312 15.407C32.9381 15.594 38.0886 20.869 38.0886 27.3175V28.0236ZM39.3243 23.8908C38.7532 21.6998 37.6629 19.7372 36.178 18.1173C37.7148 16.7881 39.7085 15.9885 41.8892 15.9678H42.0138C46.5516 15.9989 50.2899 19.4672 50.7571 23.8908H39.3243Z" fill="#B8B8B8"/>
</svg>
